<svg width="20" height="20" viewBox="0 0 20 20" fill="none" xmlns="http://www.w3.org/2000/svg">
<path d="M10.7471 1.3335C11.0499 1.3335 11.3145 1.53768 11.3916 1.83057L11.8057 3.40576L13.2871 4.01514L14.3662 3.09326C14.6307 2.86738 15.0245 2.8825 15.2705 3.12842L16.8701 4.729C17.1152 4.97407 17.1319 5.36568 16.9082 5.63037L15.9902 6.71631L16.585 8.15283L18.1631 8.5542C18.4585 8.62931 18.6658 8.89496 18.666 9.19971V10.7817C18.666 11.0852 18.4607 11.3508 18.167 11.4272L16.5791 11.8403L15.9834 13.2788L16.9072 14.3687C17.1316 14.6333 17.1155 15.0266 16.8701 15.272L15.2705 16.8716C15.0201 17.122 14.6171 17.1324 14.3535 16.896L14.3096 16.8569C14.2808 16.8313 14.2395 16.7938 14.1885 16.7485C14.0863 16.6579 13.9463 16.5347 13.7959 16.4038C13.6219 16.2524 13.4447 16.1007 13.2969 15.978L11.8467 16.5786L11.4453 18.1636C11.3704 18.4594 11.104 18.6665 10.7988 18.6665H9.19922C8.89399 18.6665 8.62758 18.4595 8.55273 18.1636L8.15234 16.5786L6.74512 15.9995L5.62012 16.9165C5.355 17.1326 4.96937 17.1134 4.72754 16.8716L3.12793 15.272C2.87813 15.0222 2.86659 14.6207 3.10156 14.3569L4.0332 13.311L3.43164 11.8823L1.82324 11.4429C1.5335 11.3636 1.33213 11.1007 1.33203 10.8003V9.19971C1.3322 8.89005 1.54607 8.62166 1.84766 8.55127L3.40918 8.18604L3.99512 6.74561L3.08203 5.62061C2.86661 5.35546 2.88637 4.97057 3.12793 4.729L4.72754 3.12842C4.97713 2.87892 5.37782 2.86764 5.6416 3.10205L6.69141 4.03467L8.11719 3.43408L8.53906 1.83057C8.61612 1.53777 8.88085 1.3336 9.18359 1.3335H10.7471ZM9.32324 4.09033C9.27061 4.29034 9.12806 4.45529 8.9375 4.53564L6.82129 5.42725C6.5845 5.52696 6.31113 5.4818 6.11914 5.31104L5.22559 4.51611L4.49512 5.24658L5.2793 6.21045C5.4327 6.39927 5.47056 6.65697 5.37891 6.88232L4.51465 9.0083C4.43314 9.2087 4.25948 9.35751 4.04883 9.40674L2.66602 9.729V10.2915L4.0957 10.6812C4.29311 10.7351 4.45469 10.8773 4.53418 11.0659L5.42578 13.1812C5.52559 13.4181 5.48056 13.6913 5.30957 13.8833L4.51562 14.7739L5.24512 15.5024L6.21094 14.7153C6.40052 14.5609 6.65962 14.5227 6.88574 14.6157L8.9707 15.4731C9.16578 15.5535 9.31152 15.7217 9.36328 15.9263L9.71777 17.3335H10.2803L10.6367 15.9272C10.6884 15.7233 10.833 15.5557 11.0273 15.4751L13.1484 14.5962C13.3609 14.5084 13.604 14.5367 13.791 14.6704C13.9992 14.8193 14.3741 15.1396 14.6709 15.3979C14.7048 15.4275 14.739 15.4564 14.7715 15.4849L15.4932 14.7632L14.7031 13.8306C14.5417 13.64 14.5002 13.3748 14.5957 13.144L15.4746 11.0229C15.5546 10.8303 15.72 10.686 15.9219 10.6333L17.332 10.2661V9.71826L15.9326 9.36279C15.7288 9.31097 15.5619 9.16547 15.4814 8.97119L14.6025 6.85107C14.5071 6.62058 14.5489 6.35603 14.71 6.16553L15.4941 5.23779L14.7637 4.50732L13.8438 5.29346C13.6536 5.45584 13.3885 5.49795 13.1572 5.40283L10.9922 4.51221C10.7989 4.43271 10.6537 4.26709 10.6006 4.06494L10.2334 2.6665H9.69727L9.32324 4.09033ZM10 6.8335C11.7489 6.8335 13.167 8.25155 13.167 10.0005C13.1668 11.7493 11.7488 13.1665 10 13.1665C8.25132 13.1663 6.83416 11.7492 6.83398 10.0005C6.83398 8.25166 8.25121 6.83367 10 6.8335ZM10 8.1665C8.98759 8.16668 8.16699 8.98804 8.16699 10.0005C8.16717 11.0128 8.9877 11.8333 10 11.8335C11.0125 11.8335 11.8338 11.0129 11.834 10.0005C11.834 8.98793 11.0126 8.1665 10 8.1665Z" fill="#E0E4EB"/>
</svg>
