<svg width="20" height="20" viewBox="0 0 20 20" fill="none" xmlns="http://www.w3.org/2000/svg">
<path d="M2.79159 8.6675L9.45825 2.9638C9.77013 2.69696 10.2299 2.69696 10.5417 2.96379L17.2084 8.6675C17.3935 8.82582 17.5 9.05717 17.5 9.30071V16.8336C17.5 17.2939 17.1269 17.667 16.6667 17.667H12.7083C12.2481 17.667 11.875 17.2939 11.875 16.8336V13.0838C11.875 12.8537 11.6885 12.6671 11.4583 12.6671H8.54167C8.31155 12.6671 8.125 12.8537 8.125 13.0838V16.8336C8.125 17.2939 7.7519 17.667 7.29167 17.667H3.33333C2.8731 17.667 2.5 17.2939 2.5 16.8336V9.30071C2.5 9.05717 2.60653 8.82582 2.79159 8.6675Z" fill="#F0F1F5"/>
</svg>
