<svg width="20" height="20" viewBox="0 0 20 20" fill="none" xmlns="http://www.w3.org/2000/svg">
<path fill-rule="evenodd" clip-rule="evenodd" d="M12.4987 5.66672C12.4987 6.67924 13.3195 7.50003 14.332 7.50001C15.3446 7.49998 16.1654 6.67915 16.1654 5.66662C16.1654 4.6541 15.3446 3.83331 14.332 3.83333C13.3195 3.83336 12.4987 4.65419 12.4987 5.66672ZM11.2623 4.88608C11.61 3.51469 12.8525 2.50004 14.332 2.5C16.0809 2.49996 17.4987 3.91769 17.4987 5.66659C17.4987 7.41549 16.0809 8.8333 14.332 8.83334C13.7796 8.83336 13.2603 8.69192 12.8082 8.44328L8.44274 12.8086C8.60727 13.1075 8.72492 13.4358 8.7858 13.7837H11.2129C11.4731 12.2967 12.7706 11.1666 14.332 11.1666C16.0809 11.1666 17.4987 12.5844 17.4988 14.3333C17.4988 16.0822 16.0811 17.4999 14.3322 17.4999C12.8538 17.4999 11.612 16.4868 11.2632 15.117H8.73561C8.38685 16.4869 7.14506 17.5 5.66667 17.5C3.91778 17.5 2.5 16.0823 2.5 14.3334C2.5 12.5845 3.91778 11.1668 5.66667 11.1668C6.37935 11.1667 7.03704 11.4022 7.56622 11.7995L11.7987 7.56709C11.5062 7.17773 11.3013 6.71873 11.2134 6.21941H8.78527C8.52383 7.70481 7.22703 8.83337 5.66667 8.83339C3.91778 8.83341 2.5 7.41571 2.5 5.66682C2.5 3.91794 3.91778 2.50019 5.66667 2.50017C7.14615 2.50015 8.38867 3.51472 8.73637 4.88608H11.2623ZM7.41523 6.21941H5.83268C5.46449 6.21941 5.16602 5.92093 5.16602 5.55274C5.16602 5.18455 5.46449 4.88608 5.83268 4.88608H7.32594C7.03273 4.26402 6.39998 3.8335 5.66667 3.8335C4.65413 3.83352 3.83333 4.65433 3.83333 5.66681C3.83333 6.67928 4.65413 7.50006 5.66667 7.50005C6.4866 7.50004 7.1808 6.96181 7.41523 6.21941ZM7.49327 14.1752C7.4552 14.2591 7.434 14.3522 7.434 14.4504C7.434 14.526 7.4466 14.5987 7.46981 14.6665C7.31314 15.5199 6.56544 16.1666 5.66667 16.1666C4.65413 16.1666 3.83333 15.3459 3.83333 14.3334C3.83333 13.3209 4.65413 12.5001 5.66667 12.5001C6.62591 12.5001 7.41307 13.2367 7.49327 14.1752ZM12.6743 15.117C12.9682 15.7375 13.6001 16.1666 14.3322 16.1666C15.3447 16.1666 16.1655 15.3458 16.1655 14.3333C16.1654 13.3207 15.3446 12.4999 14.3321 12.4999C13.511 12.4999 12.816 13.0397 12.5826 13.7837H14.166C14.5342 13.7837 14.8327 14.0822 14.8327 14.4504C14.8327 14.8185 14.5342 15.117 14.166 15.117H12.6743Z" fill="#F0F1F5"/>
</svg>
