<svg width="20" height="20" viewBox="0 0 20 20" fill="none" xmlns="http://www.w3.org/2000/svg">
<path d="M16.6663 14.791C16.6663 14.4458 16.3865 14.166 16.0413 14.166H15.833V7.91602C15.833 4.99223 14.1521 2.48535 11.4282 1.83774C11.4282 1.83774 10.5614 1.66599 9.99944 1.66602C9.43763 1.66604 8.5711 1.83774 8.5711 1.83774C5.83777 2.48535 4.16634 4.98284 4.16634 7.91615V14.166L3.95789 14.166C3.61276 14.1661 3.33301 14.4459 3.33301 14.791C3.33301 15.1362 3.61282 15.416 3.95799 15.416H16.0413C16.3865 15.416 16.6663 15.1362 16.6663 14.791ZM14.583 14.166L5.41634 14.1661V7.91615C5.41634 5.55427 7.08301 2.91602 9.99944 2.91615C12.9159 2.91628 14.583 5.55413 14.583 7.91602V14.166ZM9.99944 17.916C11.0471 17.916 11.9042 17.0589 11.9042 16.0113H8.09468C8.09468 16.5164 8.29536 17.0009 8.65257 17.3581C9.00979 17.7153 9.49427 17.916 9.99944 17.916Z" fill="#F0F1F5"/>
</svg>
