<svg width="56" height="56" viewBox="0 0 56 56" fill="none" xmlns="http://www.w3.org/2000/svg">
<rect width="56" height="56" rx="28" fill="#4E576A"/>
<path fill-rule="evenodd" clip-rule="evenodd" d="M25.6 22C25.6 20.6745 26.6745 19.6 28 19.6C29.3255 19.6 30.4 20.6745 30.4 22C30.4 23.3255 29.3255 24.4 28 24.4C26.6745 24.4 25.6 23.3255 25.6 22ZM28 18C25.7909 18 24 19.7909 24 22C24 24.2091 25.7909 26 28 26C30.2091 26 32 24.2091 32 22C32 19.7909 30.2091 18 28 18ZM36.2419 29.5927C31.4271 26.2347 25.0543 26.1415 20.1433 29.3573L19.8139 29.573C19.306 29.9055 19 30.4717 19 31.0788V35.1999C19 36.194 19.8059 36.9999 20.8 36.9999H35.1992C36.1933 36.9999 36.9992 36.194 36.9992 35.1999V31.0443C36.9992 30.4657 36.7164 29.9237 36.2419 29.5927ZM21.0198 30.6958C25.3842 27.838 31.0477 27.9208 35.3266 30.9051C35.3721 30.9368 35.3992 30.9888 35.3992 31.0443V35.1999C35.3992 35.3103 35.3097 35.3999 35.1992 35.3999H20.8C20.6895 35.3999 20.6 35.3103 20.6 35.1999V31.0788C20.6 31.0114 20.634 30.9485 20.6904 30.9115L21.0198 30.6958Z" fill="#D1D6E0"/>
</svg>
