<svg width="21" height="21" viewBox="0 0 21 21" fill="none" xmlns="http://www.w3.org/2000/svg">
<path fill-rule="evenodd" clip-rule="evenodd" d="M17.8118 2.57812C18.18 2.57812 18.4785 2.8766 18.4785 3.24479V9.91146C18.4785 10.2796 18.18 10.5781 17.8118 10.5781C17.4437 10.5781 17.1452 10.2796 17.1452 9.91146V4.84041L5.60164 16.2432H10.8118C11.18 16.2432 11.4785 16.5416 11.4785 16.9098C11.4785 17.278 11.18 17.5765 10.8118 17.5765H4.14518C3.77699 17.5765 3.47852 17.278 3.47852 16.9098V10.2432C3.47852 9.87497 3.77699 9.5765 4.14518 9.5765C4.51337 9.5765 4.81185 9.87497 4.81185 10.2432V15.1492L16.1883 3.91146H11.1452C10.777 3.91146 10.4785 3.61298 10.4785 3.24479C10.4785 2.8766 10.777 2.57812 11.1452 2.57812H17.8118Z" fill="#F0F1F5"/>
</svg>
