<svg width="48" height="37" viewBox="0 0 48 37" fill="none" xmlns="http://www.w3.org/2000/svg">
<g filter="url(#filter0_di_1156_9219)">
<path d="M12.5285 29.4882V30.4361L11.7078 30.91L10.887 30.4361V29.4882L11.7078 29.0143L12.5285 29.4882Z" fill="url(#paint0_linear_1156_9219)"/>
<path d="M12.5285 29.4882V30.4361L11.7078 30.91L10.887 30.4361V29.4882L11.7078 29.0143L12.5285 29.4882Z" fill="url(#paint1_linear_1156_9219)" fill-opacity="0.95"/>
<path d="M36.5071 29.4882V30.4361L35.6864 30.91L34.8656 30.4361V29.4882L35.6864 29.0143L36.5071 29.4882Z" fill="url(#paint2_linear_1156_9219)"/>
<path d="M36.5071 29.4882V30.4361L35.6864 30.91L34.8656 30.4361V29.4882L35.6864 29.0143L36.5071 29.4882Z" fill="url(#paint3_linear_1156_9219)" fill-opacity="0.95"/>
<path d="M14.8662 27.9953V29.1801L13.8402 29.7726L12.8143 29.1801V27.9953L13.8402 27.4029L14.8662 27.9953Z" fill="url(#paint4_linear_1156_9219)"/>
<path d="M14.8662 27.9953V29.1801L13.8402 29.7726L12.8143 29.1801V27.9953L13.8402 27.4029L14.8662 27.9953Z" fill="url(#paint5_linear_1156_9219)" fill-opacity="0.95"/>
<path d="M34.5798 27.9953V29.1801L33.5539 29.7726L32.5279 29.1801V27.9953L33.5539 27.4029L34.5798 27.9953Z" fill="url(#paint6_linear_1156_9219)"/>
<path d="M34.5798 27.9953V29.1801L33.5539 29.7726L32.5279 29.1801V27.9953L33.5539 27.4029L34.5798 27.9953Z" fill="url(#paint7_linear_1156_9219)" fill-opacity="0.95"/>
<path d="M17.1726 27.2133V28.1612L16.3518 28.6351L15.5311 28.1612V27.2133L16.3518 26.7394L17.1726 27.2133Z" fill="url(#paint8_linear_1156_9219)"/>
<path d="M17.1726 27.2133V28.1612L16.3518 28.6351L15.5311 28.1612V27.2133L16.3518 26.7394L17.1726 27.2133Z" fill="url(#paint9_linear_1156_9219)" fill-opacity="0.95"/>
<path d="M31.8631 27.2133V28.1612L31.0423 28.6351L30.2215 28.1612V27.2133L31.0423 26.7394L31.8631 27.2133Z" fill="url(#paint10_linear_1156_9219)"/>
<path d="M31.8631 27.2133V28.1612L31.0423 28.6351L30.2215 28.1612V27.2133L31.0423 26.7394L31.8631 27.2133Z" fill="url(#paint11_linear_1156_9219)" fill-opacity="0.95"/>
<path d="M21.7581 18.3074L18.6734 21.2866V23.832L19.6046 24.3697V26.2654L17.963 27.2133L16.3215 26.2654V24.3697L17.963 23.4218L18.3892 23.6679V21.2262L18.3891 21.1659L21.5606 18.1028L21.7581 18.3074Z" fill="url(#paint12_linear_1156_9219)"/>
<path d="M21.7581 18.3074L18.6734 21.2866V23.832L19.6046 24.3697V26.2654L17.963 27.2133L16.3215 26.2654V24.3697L17.963 23.4218L18.3892 23.6679V21.2262L18.3891 21.1659L21.5606 18.1028L21.7581 18.3074Z" fill="url(#paint13_linear_1156_9219)" fill-opacity="0.95"/>
<path d="M29.005 21.1659L29.0049 21.2262V23.6679L29.4311 23.4218L31.0726 24.3697V26.2654L29.4311 27.2133L27.7895 26.2654V24.3697L28.7207 23.832V21.2866L25.636 18.3074L25.8335 18.1028L29.005 21.1659Z" fill="url(#paint14_linear_1156_9219)"/>
<path d="M29.005 21.1659L29.0049 21.2262V23.6679L29.4311 23.4218L31.0726 24.3697V26.2654L29.4311 27.2133L27.7895 26.2654V24.3697L28.7207 23.832V21.2866L25.636 18.3074L25.8335 18.1028L29.005 21.1659Z" fill="url(#paint15_linear_1156_9219)" fill-opacity="0.95"/>
<path d="M15.4344 24.0853V25.9811L13.7929 26.929L12.1513 25.9811V24.0853L13.7929 23.1375L15.4344 24.0853Z" fill="url(#paint16_linear_1156_9219)"/>
<path d="M15.4344 24.0853V25.9811L13.7929 26.929L12.1513 25.9811V24.0853L13.7929 23.1375L15.4344 24.0853Z" fill="url(#paint17_linear_1156_9219)" fill-opacity="0.95"/>
<path d="M35.2428 24.0853V25.9811L33.6013 26.929L31.9597 25.9811V24.0853L33.6013 23.1375L35.2428 24.0853Z" fill="url(#paint18_linear_1156_9219)"/>
<path d="M35.2428 24.0853V25.9811L33.6013 26.929L31.9597 25.9811V24.0853L33.6013 23.1375L35.2428 24.0853Z" fill="url(#paint19_linear_1156_9219)" fill-opacity="0.95"/>
<path d="M23.152 18.3963L23.1521 18.3966C23.1521 18.3968 23.1521 18.3972 23.1522 18.3976L23.1536 18.4161C23.1545 18.4291 23.1559 18.4482 23.1575 18.4729C23.1609 18.5224 23.1653 18.5942 23.17 18.6837C23.1792 18.8627 23.1891 19.1124 23.1918 19.3956C23.1971 19.9615 23.1734 20.6628 23.0568 21.1993C22.8077 22.3453 22.4854 22.9608 21.8691 23.9557C21.6116 24.3713 21.2196 24.8582 20.8926 25.2407C20.729 25.432 20.5815 25.5974 20.4748 25.715C20.4215 25.7738 20.3784 25.8207 20.3487 25.8529C20.3338 25.8689 20.3222 25.8813 20.3143 25.8897C20.3104 25.8939 20.3075 25.8971 20.3054 25.8993C20.3045 25.9003 20.3036 25.9012 20.3031 25.9018L20.3024 25.9025L20.2513 25.9567L20.2617 25.883C20.2617 25.8828 20.2617 25.8824 20.2618 25.8821C20.2618 25.8816 20.262 25.8807 20.2621 25.8797C20.2624 25.8776 20.2628 25.8745 20.2634 25.8704C20.2646 25.8621 20.2664 25.8497 20.2687 25.8339C20.2733 25.8022 20.2801 25.7562 20.2888 25.6989C20.3062 25.5841 20.3311 25.4238 20.3616 25.2419C20.4226 24.8781 20.5057 24.4271 20.5938 24.0795C20.8912 22.9077 21.1988 22.2884 21.6851 21.1848C21.9324 20.6235 22.2881 19.9238 22.5819 19.3648C22.7287 19.0852 22.8602 18.8407 22.9549 18.6661C23.0023 18.5788 23.0405 18.5089 23.0668 18.4609C23.08 18.4369 23.0902 18.4184 23.0971 18.4058C23.1006 18.3995 23.1032 18.3947 23.105 18.3915C23.1059 18.3899 23.1066 18.3887 23.107 18.3879C23.1072 18.3875 23.1074 18.3871 23.1075 18.3869L23.1458 18.3178L23.152 18.3963Z" fill="url(#paint20_linear_1156_9219)"/>
<path d="M23.152 18.3963L23.1521 18.3966C23.1521 18.3968 23.1521 18.3972 23.1522 18.3976L23.1536 18.4161C23.1545 18.4291 23.1559 18.4482 23.1575 18.4729C23.1609 18.5224 23.1653 18.5942 23.17 18.6837C23.1792 18.8627 23.1891 19.1124 23.1918 19.3956C23.1971 19.9615 23.1734 20.6628 23.0568 21.1993C22.8077 22.3453 22.4854 22.9608 21.8691 23.9557C21.6116 24.3713 21.2196 24.8582 20.8926 25.2407C20.729 25.432 20.5815 25.5974 20.4748 25.715C20.4215 25.7738 20.3784 25.8207 20.3487 25.8529C20.3338 25.8689 20.3222 25.8813 20.3143 25.8897C20.3104 25.8939 20.3075 25.8971 20.3054 25.8993C20.3045 25.9003 20.3036 25.9012 20.3031 25.9018L20.3024 25.9025L20.2513 25.9567L20.2617 25.883C20.2617 25.8828 20.2617 25.8824 20.2618 25.8821C20.2618 25.8816 20.262 25.8807 20.2621 25.8797C20.2624 25.8776 20.2628 25.8745 20.2634 25.8704C20.2646 25.8621 20.2664 25.8497 20.2687 25.8339C20.2733 25.8022 20.2801 25.7562 20.2888 25.6989C20.3062 25.5841 20.3311 25.4238 20.3616 25.2419C20.4226 24.8781 20.5057 24.4271 20.5938 24.0795C20.8912 22.9077 21.1988 22.2884 21.6851 21.1848C21.9324 20.6235 22.2881 19.9238 22.5819 19.3648C22.7287 19.0852 22.8602 18.8407 22.9549 18.6661C23.0023 18.5788 23.0405 18.5089 23.0668 18.4609C23.08 18.4369 23.0902 18.4184 23.0971 18.4058C23.1006 18.3995 23.1032 18.3947 23.105 18.3915C23.1059 18.3899 23.1066 18.3887 23.107 18.3879C23.1072 18.3875 23.1074 18.3871 23.1075 18.3869L23.1458 18.3178L23.152 18.3963Z" fill="url(#paint21_linear_1156_9219)" fill-opacity="0.95"/>
<path d="M24.2865 18.3867L24.2866 18.3869C24.2867 18.3871 24.2869 18.3875 24.2871 18.3879C24.2875 18.3887 24.2883 18.3899 24.2891 18.3915C24.2909 18.3947 24.2936 18.3995 24.297 18.4058C24.3039 18.4184 24.3141 18.4369 24.3273 18.4609C24.3536 18.5089 24.3918 18.5788 24.4392 18.6661C24.5339 18.8407 24.6654 19.0852 24.8123 19.3648C25.106 19.9238 25.4617 20.6235 25.709 21.1848C26.1953 22.2884 26.503 22.9077 26.8003 24.0795C26.8885 24.4271 26.9715 24.8781 27.0325 25.2419C27.063 25.4238 27.088 25.5841 27.1053 25.6989C27.114 25.7562 27.1208 25.8022 27.1254 25.8339C27.1277 25.8497 27.1295 25.8621 27.1307 25.8704C27.1313 25.8745 27.1317 25.8776 27.132 25.8797C27.1321 25.8807 27.1323 25.8816 27.1324 25.8821C27.1324 25.8824 27.1324 25.8826 27.1324 25.8828L27.1428 25.9567L27.0917 25.9026L27.091 25.9018C27.0905 25.9012 27.0897 25.9003 27.0887 25.8993C27.0867 25.8971 27.0837 25.8939 27.0798 25.8897C27.0719 25.8813 27.0603 25.8689 27.0454 25.8529C27.0157 25.8207 26.9726 25.7738 26.9193 25.715C26.8127 25.5974 26.6651 25.432 26.5015 25.2407C26.1745 24.8582 25.7825 24.3713 25.525 23.9557C24.9087 22.9608 24.5864 22.3453 24.3374 21.1993C24.2207 20.6628 24.197 19.9615 24.2023 19.3956C24.205 19.1124 24.2149 18.8627 24.2242 18.6837C24.2288 18.5942 24.2333 18.5224 24.2366 18.4729C24.2382 18.4482 24.2396 18.4291 24.2405 18.4161L24.2419 18.3976C24.242 18.3972 24.242 18.3968 24.242 18.3966V18.3963L24.2483 18.3178L24.2865 18.3867Z" fill="url(#paint22_linear_1156_9219)"/>
<path d="M24.2865 18.3867L24.2866 18.3869C24.2867 18.3871 24.2869 18.3875 24.2871 18.3879C24.2875 18.3887 24.2883 18.3899 24.2891 18.3915C24.2909 18.3947 24.2936 18.3995 24.297 18.4058C24.3039 18.4184 24.3141 18.4369 24.3273 18.4609C24.3536 18.5089 24.3918 18.5788 24.4392 18.6661C24.5339 18.8407 24.6654 19.0852 24.8123 19.3648C25.106 19.9238 25.4617 20.6235 25.709 21.1848C26.1953 22.2884 26.503 22.9077 26.8003 24.0795C26.8885 24.4271 26.9715 24.8781 27.0325 25.2419C27.063 25.4238 27.088 25.5841 27.1053 25.6989C27.114 25.7562 27.1208 25.8022 27.1254 25.8339C27.1277 25.8497 27.1295 25.8621 27.1307 25.8704C27.1313 25.8745 27.1317 25.8776 27.132 25.8797C27.1321 25.8807 27.1323 25.8816 27.1324 25.8821C27.1324 25.8824 27.1324 25.8826 27.1324 25.8828L27.1428 25.9567L27.0917 25.9026L27.091 25.9018C27.0905 25.9012 27.0897 25.9003 27.0887 25.8993C27.0867 25.8971 27.0837 25.8939 27.0798 25.8897C27.0719 25.8813 27.0603 25.8689 27.0454 25.8529C27.0157 25.8207 26.9726 25.7738 26.9193 25.715C26.8127 25.5974 26.6651 25.432 26.5015 25.2407C26.1745 24.8582 25.7825 24.3713 25.525 23.9557C24.9087 22.9608 24.5864 22.3453 24.3374 21.1993C24.2207 20.6628 24.197 19.9615 24.2023 19.3956C24.205 19.1124 24.2149 18.8627 24.2242 18.6837C24.2288 18.5942 24.2333 18.5224 24.2366 18.4729C24.2382 18.4482 24.2396 18.4291 24.2405 18.4161L24.2419 18.3976C24.242 18.3972 24.242 18.3968 24.242 18.3966V18.3963L24.2483 18.3178L24.2865 18.3867Z" fill="url(#paint23_linear_1156_9219)" fill-opacity="0.95"/>
<path d="M21.0007 18.1203L17.348 20.7743L17.9934 21.147V23.0427L16.3518 23.9906L14.7103 23.0427V21.147L16.3518 20.1991L17.0786 20.6187L20.8336 17.8903L21.0007 18.1203Z" fill="url(#paint24_linear_1156_9219)"/>
<path d="M21.0007 18.1203L17.348 20.7743L17.9934 21.147V23.0427L16.3518 23.9906L14.7103 23.0427V21.147L16.3518 20.1991L17.0786 20.6187L20.8336 17.8903L21.0007 18.1203Z" fill="url(#paint25_linear_1156_9219)" fill-opacity="0.95"/>
<path d="M30.3154 20.6187L31.0423 20.1991L32.6838 21.147V23.0427L31.0423 23.9906L29.4007 23.0427V21.147L30.046 20.7743L26.3934 18.1203L26.5605 17.8903L30.3154 20.6187Z" fill="url(#paint26_linear_1156_9219)"/>
<path d="M30.3154 20.6187L31.0423 20.1991L32.6838 21.147V23.0427L31.0423 23.9906L29.4007 23.0427V21.147L30.046 20.7743L26.3934 18.1203L26.5605 17.8903L30.3154 20.6187Z" fill="url(#paint27_linear_1156_9219)" fill-opacity="0.95"/>
<path d="M16.0979 11.3839V13.2796L16.0442 13.3106L20.1254 14.4042L20.0518 14.6789L16.5243 13.7335L14.5289 15.0319C14.5432 15.0772 14.5511 15.1254 14.5511 15.1754C14.5511 15.4371 14.3389 15.6493 14.0772 15.6493C13.8155 15.6493 13.6033 15.4371 13.6033 15.1754C13.6033 14.9136 13.8155 14.7014 14.0772 14.7014C14.1856 14.7014 14.2854 14.7379 14.3652 14.7991L16.155 13.6345L15.696 13.5116L14.4563 14.2275L12.8147 13.2796V12.4266H11.231L10.8251 12.7084L12.3068 13.564V15.4597L12.194 15.5248L12.8605 16.3071L19.8507 16.1144L19.8586 16.3985L13.8826 16.5633L16.0958 17.7887L19.9357 16.8311L20.0248 16.7932L20.0308 16.8074L20.0744 16.7966L20.1433 17.0725L20.026 17.1017L16.2435 18.7116V19.7052L20.2794 17.4678L20.4173 17.7166L16.0774 20.1224L16.0702 20.1095L14.9302 20.7678L13.8505 20.1444L13.042 20.7105L13.2233 20.8152V22.237L11.9921 22.9479L10.7609 22.237V20.8152L11.9921 20.1043L12.7703 20.5536L13.6169 19.9608V18.4929L14.9302 17.7346L16.1534 18.4409L18.2726 17.5388L16.056 18.0916L16.0071 18.0644L13.3234 16.5787L12.7324 16.5951L11.9435 15.6694L10.6652 16.4076L9.02365 15.4597V13.564L9.44524 13.3205L11.142 12.1422H12.8147V11.3839L14.4563 10.436L16.0979 11.3839Z" fill="url(#paint28_linear_1156_9219)"/>
<path d="M16.0979 11.3839V13.2796L16.0442 13.3106L20.1254 14.4042L20.0518 14.6789L16.5243 13.7335L14.5289 15.0319C14.5432 15.0772 14.5511 15.1254 14.5511 15.1754C14.5511 15.4371 14.3389 15.6493 14.0772 15.6493C13.8155 15.6493 13.6033 15.4371 13.6033 15.1754C13.6033 14.9136 13.8155 14.7014 14.0772 14.7014C14.1856 14.7014 14.2854 14.7379 14.3652 14.7991L16.155 13.6345L15.696 13.5116L14.4563 14.2275L12.8147 13.2796V12.4266H11.231L10.8251 12.7084L12.3068 13.564V15.4597L12.194 15.5248L12.8605 16.3071L19.8507 16.1144L19.8586 16.3985L13.8826 16.5633L16.0958 17.7887L19.9357 16.8311L20.0248 16.7932L20.0308 16.8074L20.0744 16.7966L20.1433 17.0725L20.026 17.1017L16.2435 18.7116V19.7052L20.2794 17.4678L20.4173 17.7166L16.0774 20.1224L16.0702 20.1095L14.9302 20.7678L13.8505 20.1444L13.042 20.7105L13.2233 20.8152V22.237L11.9921 22.9479L10.7609 22.237V20.8152L11.9921 20.1043L12.7703 20.5536L13.6169 19.9608V18.4929L14.9302 17.7346L16.1534 18.4409L18.2726 17.5388L16.056 18.0916L16.0071 18.0644L13.3234 16.5787L12.7324 16.5951L11.9435 15.6694L10.6652 16.4076L9.02365 15.4597V13.564L9.44524 13.3205L11.142 12.1422H12.8147V11.3839L14.4563 10.436L16.0979 11.3839Z" fill="url(#paint29_linear_1156_9219)" fill-opacity="0.95"/>
<path d="M34.5794 11.3839V12.1422H36.2521L37.9488 13.3205L38.3705 13.564V15.4597L36.7289 16.4076L35.4505 15.6694L34.6618 16.5951L34.0706 16.5787L31.387 18.0644L31.3381 18.0916L29.1213 17.5388L31.2406 18.4409L32.4639 17.7346L33.7772 18.4929V19.9608L34.6237 20.5536L35.402 20.1043L36.6332 20.8152V22.237L35.402 22.9479L34.1708 22.237V20.8152L34.352 20.7105L33.5435 20.1444L32.4639 20.7678L31.3238 20.1095L31.3167 20.1224L26.9768 17.7166L27.1147 17.4678L31.1507 19.7052V18.7116L27.368 17.1017L27.2508 17.0725L27.3197 16.7966L27.3632 16.8074L27.3693 16.7932L27.4583 16.8311L31.2983 17.7887L33.5114 16.5633L27.5355 16.3985L27.5434 16.1144L34.5336 16.3071L35.2001 15.5248L35.0873 15.4597V13.564L36.569 12.7084L36.1631 12.4266H34.5794V13.2796L32.9378 14.2275L31.698 13.5116L31.239 13.6345L33.0288 14.7991C33.1086 14.7379 33.2085 14.7014 33.3169 14.7014C33.5786 14.7014 33.7908 14.9136 33.7908 15.1754C33.7908 15.4371 33.5786 15.6493 33.3169 15.6493C33.0552 15.6493 32.843 15.4371 32.843 15.1754C32.843 15.1254 32.8508 15.0772 32.8652 15.0319L30.8698 13.7335L27.3423 14.6789L27.2687 14.4042L31.3498 13.3106L31.2963 13.2796V11.3839L32.9378 10.436L34.5794 11.3839Z" fill="url(#paint30_linear_1156_9219)"/>
<path d="M34.5794 11.3839V12.1422H36.2521L37.9488 13.3205L38.3705 13.564V15.4597L36.7289 16.4076L35.4505 15.6694L34.6618 16.5951L34.0706 16.5787L31.387 18.0644L31.3381 18.0916L29.1213 17.5388L31.2406 18.4409L32.4639 17.7346L33.7772 18.4929V19.9608L34.6237 20.5536L35.402 20.1043L36.6332 20.8152V22.237L35.402 22.9479L34.1708 22.237V20.8152L34.352 20.7105L33.5435 20.1444L32.4639 20.7678L31.3238 20.1095L31.3167 20.1224L26.9768 17.7166L27.1147 17.4678L31.1507 19.7052V18.7116L27.368 17.1017L27.2508 17.0725L27.3197 16.7966L27.3632 16.8074L27.3693 16.7932L27.4583 16.8311L31.2983 17.7887L33.5114 16.5633L27.5355 16.3985L27.5434 16.1144L34.5336 16.3071L35.2001 15.5248L35.0873 15.4597V13.564L36.569 12.7084L36.1631 12.4266H34.5794V13.2796L32.9378 14.2275L31.698 13.5116L31.239 13.6345L33.0288 14.7991C33.1086 14.7379 33.2085 14.7014 33.3169 14.7014C33.5786 14.7014 33.7908 14.9136 33.7908 15.1754C33.7908 15.4371 33.5786 15.6493 33.3169 15.6493C33.0552 15.6493 32.843 15.4371 32.843 15.1754C32.843 15.1254 32.8508 15.0772 32.8652 15.0319L30.8698 13.7335L27.3423 14.6789L27.2687 14.4042L31.3498 13.3106L31.2963 13.2796V11.3839L32.9378 10.436L34.5794 11.3839Z" fill="url(#paint31_linear_1156_9219)" fill-opacity="0.95"/>
<path d="M22.4115 18.3939L20.149 21.6252L20.143 21.621C20.2025 21.7002 20.2377 21.7986 20.2377 21.9052C20.2377 22.167 20.0255 22.3792 19.7638 22.3792C19.5021 22.3792 19.2899 22.167 19.2899 21.9052C19.2899 21.6435 19.5021 21.4313 19.7638 21.4313C19.8183 21.4313 19.8706 21.4406 19.9193 21.4575L22.1785 18.2308L22.4115 18.3939Z" fill="url(#paint32_linear_1156_9219)"/>
<path d="M22.4115 18.3939L20.149 21.6252L20.143 21.621C20.2025 21.7002 20.2377 21.7986 20.2377 21.9052C20.2377 22.167 20.0255 22.3792 19.7638 22.3792C19.5021 22.3792 19.2899 22.167 19.2899 21.9052C19.2899 21.6435 19.5021 21.4313 19.7638 21.4313C19.8183 21.4313 19.8706 21.4406 19.9193 21.4575L22.1785 18.2308L22.4115 18.3939Z" fill="url(#paint33_linear_1156_9219)" fill-opacity="0.95"/>
<path d="M27.4747 21.4575C27.5235 21.4406 27.5758 21.4313 27.6303 21.4313C27.892 21.4313 28.1042 21.6435 28.1042 21.9052C28.1042 22.167 27.892 22.3792 27.6303 22.3792C27.3686 22.3792 27.1564 22.167 27.1564 21.9052C27.1564 21.7986 27.1916 21.7002 27.251 21.621L27.2451 21.6252L24.9827 18.3939L25.2156 18.2308L27.4747 21.4575Z" fill="url(#paint34_linear_1156_9219)"/>
<path d="M27.4747 21.4575C27.5235 21.4406 27.5758 21.4313 27.6303 21.4313C27.892 21.4313 28.1042 21.6435 28.1042 21.9052C28.1042 22.167 27.892 22.3792 27.6303 22.3792C27.3686 22.3792 27.1564 22.167 27.1564 21.9052C27.1564 21.7986 27.1916 21.7002 27.251 21.621L27.2451 21.6252L24.9827 18.3939L25.2156 18.2308L27.4747 21.4575Z" fill="url(#paint35_linear_1156_9219)" fill-opacity="0.95"/>
<path d="M16.9205 14.6067C17.1517 14.6067 17.3441 14.7723 17.3859 14.9914L19.9633 15.0814L19.9534 15.3656L17.3527 15.2747C17.2786 15.4396 17.113 15.5545 16.9205 15.5545C16.6588 15.5545 16.4466 15.3423 16.4466 15.0806C16.4466 14.8189 16.6588 14.6067 16.9205 14.6067Z" fill="url(#paint36_linear_1156_9219)"/>
<path d="M16.9205 14.6067C17.1517 14.6067 17.3441 14.7723 17.3859 14.9914L19.9633 15.0814L19.9534 15.3656L17.3527 15.2747C17.2786 15.4396 17.113 15.5545 16.9205 15.5545C16.6588 15.5545 16.4466 15.3423 16.4466 15.0806C16.4466 14.8189 16.6588 14.6067 16.9205 14.6067Z" fill="url(#paint37_linear_1156_9219)" fill-opacity="0.95"/>
<path d="M30.4736 14.6067C30.7353 14.6067 30.9475 14.8189 30.9475 15.0806C30.9475 15.3423 30.7353 15.5545 30.4736 15.5545C30.2811 15.5545 30.1154 15.4396 30.0413 15.2747L27.4408 15.3656L27.4308 15.0814L30.0082 14.9914C30.0499 14.7723 30.2424 14.6067 30.4736 14.6067Z" fill="url(#paint38_linear_1156_9219)"/>
<path d="M30.4736 14.6067C30.7353 14.6067 30.9475 14.8189 30.9475 15.0806C30.9475 15.3423 30.7353 15.5545 30.4736 15.5545C30.2811 15.5545 30.1154 15.4396 30.0413 15.2747L27.4408 15.3656L27.4308 15.0814L30.0082 14.9914C30.0499 14.7723 30.2424 14.6067 30.4736 14.6067Z" fill="url(#paint39_linear_1156_9219)" fill-opacity="0.95"/>
<path d="M6.05196 2.59242V3.0483H8.77291L10.5806 4.56119L11.8973 3.80095L13.5389 4.74882V6.64456L13.2614 6.8047L13.5019 7.00602L14.4563 6.45498L16.0979 7.40285V9.17863L20.7697 13.0886L20.5872 13.3066L15.9204 9.40097L15.0966 9.87666L20.4034 13.6809L20.2377 13.912L14.8263 10.0327L14.4563 10.2465L12.8147 9.29859V7.40285L13.2397 7.15746L12.9991 6.95613L11.8973 7.59243L10.2557 6.64456V4.74882L10.3184 4.71263L8.66962 3.33276L6.05196 3.33266V3.77725L5.02598 4.36967L4 3.77725V2.59242L5.02598 2L6.05196 2.59242Z" fill="url(#paint40_linear_1156_9219)"/>
<path d="M6.05196 2.59242V3.0483H8.77291L10.5806 4.56119L11.8973 3.80095L13.5389 4.74882V6.64456L13.2614 6.8047L13.5019 7.00602L14.4563 6.45498L16.0979 7.40285V9.17863L20.7697 13.0886L20.5872 13.3066L15.9204 9.40097L15.0966 9.87666L20.4034 13.6809L20.2377 13.912L14.8263 10.0327L14.4563 10.2465L12.8147 9.29859V7.40285L13.2397 7.15746L12.9991 6.95613L11.8973 7.59243L10.2557 6.64456V4.74882L10.3184 4.71263L8.66962 3.33276L6.05196 3.33266V3.77725L5.02598 4.36967L4 3.77725V2.59242L5.02598 2L6.05196 2.59242Z" fill="url(#paint41_linear_1156_9219)" fill-opacity="0.95"/>
<path d="M43.3941 2.59242V3.77725L42.3681 4.36967L41.3422 3.77725V3.33266L38.7245 3.33276L37.0756 4.71263L37.1384 4.74882V6.64456L35.4968 7.59243L34.3949 6.95613L34.1544 7.15746L34.5794 7.40285V9.29859L32.9378 10.2465L32.5677 10.0327L27.1564 13.912L26.9907 13.6809L32.2974 9.87666L31.4736 9.40097L26.8069 13.3066L26.6244 13.0886L31.2963 9.17863V7.40285L32.9378 6.45498L33.8922 7.00602L34.1326 6.8047L33.8552 6.64456V4.74882L35.4968 3.80095L36.8134 4.56119L38.6212 3.0483H41.3422V2.59242L42.3681 2L43.3941 2.59242Z" fill="url(#paint42_linear_1156_9219)"/>
<path d="M43.3941 2.59242V3.77725L42.3681 4.36967L41.3422 3.77725V3.33266L38.7245 3.33276L37.0756 4.71263L37.1384 4.74882V6.64456L35.4968 7.59243L34.3949 6.95613L34.1544 7.15746L34.5794 7.40285V9.29859L32.9378 10.2465L32.5677 10.0327L27.1564 13.912L26.9907 13.6809L32.2974 9.87666L31.4736 9.40097L26.8069 13.3066L26.6244 13.0886L31.2963 9.17863V7.40285L32.9378 6.45498L33.8922 7.00602L34.1326 6.8047L33.8552 6.64456V4.74882L35.4968 3.80095L36.8134 4.56119L38.6212 3.0483H41.3422V2.59242L42.3681 2L43.3941 2.59242Z" fill="url(#paint43_linear_1156_9219)" fill-opacity="0.95"/>
<path d="M16.5556 7.14691C16.5556 7.14695 16.5558 7.1471 16.5559 7.14719C16.5562 7.14737 16.5566 7.14759 16.557 7.14793C16.558 7.14864 16.5594 7.14976 16.5613 7.15117C16.5651 7.154 16.5708 7.15821 16.5781 7.16376C16.5929 7.17486 16.6147 7.19138 16.6427 7.21272C16.6988 7.25543 16.78 7.31782 16.8803 7.39647C17.0811 7.55381 17.3588 7.77641 17.6665 8.03748C18.2815 8.55933 19.0176 9.23602 19.4982 9.85278C19.8818 10.3451 20.2854 11.0338 20.5927 11.5985C20.7465 11.881 20.8763 12.1328 20.9677 12.314C21.0134 12.4046 21.0495 12.4775 21.0741 12.5278C21.0864 12.553 21.0959 12.5725 21.1024 12.5857C21.1055 12.5923 21.1079 12.5974 21.1096 12.6008C21.1104 12.6024 21.111 12.6037 21.1114 12.6046C21.1116 12.605 21.1118 12.6054 21.1119 12.6056L21.1121 12.6059L21.1479 12.6806L21.0779 12.6361C21.0779 12.6361 21.0777 12.636 21.0776 12.6359C21.0774 12.6358 21.0771 12.6356 21.0767 12.6353C21.0759 12.6348 21.0746 12.634 21.073 12.633C21.0697 12.6309 21.0649 12.6277 21.0586 12.6236C21.0459 12.6154 21.027 12.6033 21.0029 12.5876C20.9545 12.5562 20.8844 12.5102 20.7976 12.4523C20.6238 12.3364 20.3826 12.1723 20.1131 11.9799C19.5745 11.5954 18.9216 11.0969 18.4676 10.6424C17.7602 9.93416 17.2332 9.31299 16.8526 8.64684C16.7044 8.38747 16.621 8.01646 16.5744 7.71258C16.5511 7.56022 16.537 7.42388 16.5286 7.32565C16.5245 7.27654 16.5217 7.23685 16.52 7.20948C16.5192 7.19584 16.5186 7.18522 16.5183 7.17801C16.5181 7.17443 16.518 7.17163 16.5179 7.16977C16.5178 7.16887 16.5178 7.16812 16.5178 7.16764C16.5178 7.16742 16.5177 7.16721 16.5177 7.16709L16.5157 7.1172L16.5556 7.14691Z" fill="url(#paint44_linear_1156_9219)"/>
<path d="M16.5556 7.14691C16.5556 7.14695 16.5558 7.1471 16.5559 7.14719C16.5562 7.14737 16.5566 7.14759 16.557 7.14793C16.558 7.14864 16.5594 7.14976 16.5613 7.15117C16.5651 7.154 16.5708 7.15821 16.5781 7.16376C16.5929 7.17486 16.6147 7.19138 16.6427 7.21272C16.6988 7.25543 16.78 7.31782 16.8803 7.39647C17.0811 7.55381 17.3588 7.77641 17.6665 8.03748C18.2815 8.55933 19.0176 9.23602 19.4982 9.85278C19.8818 10.3451 20.2854 11.0338 20.5927 11.5985C20.7465 11.881 20.8763 12.1328 20.9677 12.314C21.0134 12.4046 21.0495 12.4775 21.0741 12.5278C21.0864 12.553 21.0959 12.5725 21.1024 12.5857C21.1055 12.5923 21.1079 12.5974 21.1096 12.6008C21.1104 12.6024 21.111 12.6037 21.1114 12.6046C21.1116 12.605 21.1118 12.6054 21.1119 12.6056L21.1121 12.6059L21.1479 12.6806L21.0779 12.6361C21.0779 12.6361 21.0777 12.636 21.0776 12.6359C21.0774 12.6358 21.0771 12.6356 21.0767 12.6353C21.0759 12.6348 21.0746 12.634 21.073 12.633C21.0697 12.6309 21.0649 12.6277 21.0586 12.6236C21.0459 12.6154 21.027 12.6033 21.0029 12.5876C20.9545 12.5562 20.8844 12.5102 20.7976 12.4523C20.6238 12.3364 20.3826 12.1723 20.1131 11.9799C19.5745 11.5954 18.9216 11.0969 18.4676 10.6424C17.7602 9.93416 17.2332 9.31299 16.8526 8.64684C16.7044 8.38747 16.621 8.01646 16.5744 7.71258C16.5511 7.56022 16.537 7.42388 16.5286 7.32565C16.5245 7.27654 16.5217 7.23685 16.52 7.20948C16.5192 7.19584 16.5186 7.18522 16.5183 7.17801C16.5181 7.17443 16.518 7.17163 16.5179 7.16977C16.5178 7.16887 16.5178 7.16812 16.5178 7.16764C16.5178 7.16742 16.5177 7.16721 16.5177 7.16709L16.5157 7.1172L16.5556 7.14691Z" fill="url(#paint45_linear_1156_9219)" fill-opacity="0.95"/>
<path d="M30.8764 7.1669C30.8764 7.16702 30.8763 7.16742 30.8763 7.16764C30.8763 7.16812 30.8763 7.16887 30.8762 7.16977C30.8761 7.17163 30.876 7.17443 30.8759 7.17801C30.8755 7.18522 30.8749 7.19584 30.8741 7.20948C30.8724 7.23685 30.8697 7.27654 30.8655 7.32565C30.8572 7.42388 30.843 7.56022 30.8197 7.71258C30.7732 8.01646 30.6897 8.38747 30.5416 8.64684C30.1609 9.31299 29.6339 9.93416 28.9265 10.6424C28.4726 11.0969 27.8196 11.5954 27.281 11.9799C27.0115 12.1723 26.7703 12.3364 26.5965 12.4523C26.5097 12.5102 26.4396 12.5562 26.3913 12.5876C26.3671 12.6033 26.3483 12.6154 26.3355 12.6236C26.3292 12.6277 26.3244 12.6309 26.3211 12.633C26.3195 12.634 26.3182 12.6348 26.3174 12.6353C26.317 12.6356 26.3167 12.6358 26.3165 12.6359C26.3164 12.636 26.3163 12.636 26.3162 12.636L26.2462 12.6806L26.282 12.6059L26.2822 12.6056C26.2823 12.6054 26.2825 12.605 26.2827 12.6046C26.2831 12.6037 26.2837 12.6024 26.2845 12.6008C26.2862 12.5974 26.2886 12.5923 26.2918 12.5857C26.2982 12.5725 26.3077 12.553 26.32 12.5278C26.3447 12.4775 26.3808 12.4046 26.4264 12.314C26.5178 12.1328 26.6476 11.881 26.8014 11.5985C27.1087 11.0338 27.5123 10.3451 27.8959 9.85278C28.3766 9.23602 29.1126 8.55933 29.7276 8.03748C30.0353 7.77641 30.313 7.55381 30.5138 7.39647C30.6141 7.31782 30.6953 7.25543 30.7514 7.21272C30.7794 7.19138 30.8012 7.17486 30.816 7.16376C30.8234 7.15821 30.829 7.154 30.8328 7.15117C30.8347 7.14976 30.8361 7.14864 30.8371 7.14793C30.8375 7.14759 30.8379 7.14737 30.8382 7.14719C30.8383 7.1471 30.8384 7.14695 30.8385 7.14691L30.8785 7.1172L30.8764 7.1669Z" fill="url(#paint46_linear_1156_9219)"/>
<path d="M30.8764 7.1669C30.8764 7.16702 30.8763 7.16742 30.8763 7.16764C30.8763 7.16812 30.8763 7.16887 30.8762 7.16977C30.8761 7.17163 30.876 7.17443 30.8759 7.17801C30.8755 7.18522 30.8749 7.19584 30.8741 7.20948C30.8724 7.23685 30.8697 7.27654 30.8655 7.32565C30.8572 7.42388 30.843 7.56022 30.8197 7.71258C30.7732 8.01646 30.6897 8.38747 30.5416 8.64684C30.1609 9.31299 29.6339 9.93416 28.9265 10.6424C28.4726 11.0969 27.8196 11.5954 27.281 11.9799C27.0115 12.1723 26.7703 12.3364 26.5965 12.4523C26.5097 12.5102 26.4396 12.5562 26.3913 12.5876C26.3671 12.6033 26.3483 12.6154 26.3355 12.6236C26.3292 12.6277 26.3244 12.6309 26.3211 12.633C26.3195 12.634 26.3182 12.6348 26.3174 12.6353C26.317 12.6356 26.3167 12.6358 26.3165 12.6359C26.3164 12.636 26.3163 12.636 26.3162 12.636L26.2462 12.6806L26.282 12.6059L26.2822 12.6056C26.2823 12.6054 26.2825 12.605 26.2827 12.6046C26.2831 12.6037 26.2837 12.6024 26.2845 12.6008C26.2862 12.5974 26.2886 12.5923 26.2918 12.5857C26.2982 12.5725 26.3077 12.553 26.32 12.5278C26.3447 12.4775 26.3808 12.4046 26.4264 12.314C26.5178 12.1328 26.6476 11.881 26.8014 11.5985C27.1087 11.0338 27.5123 10.3451 27.8959 9.85278C28.3766 9.23602 29.1126 8.55933 29.7276 8.03748C30.0353 7.77641 30.313 7.55381 30.5138 7.39647C30.6141 7.31782 30.6953 7.25543 30.7514 7.21272C30.7794 7.19138 30.8012 7.17486 30.816 7.16376C30.8234 7.15821 30.829 7.154 30.8328 7.15117C30.8347 7.14976 30.8361 7.14864 30.8371 7.14793C30.8375 7.14759 30.8379 7.14737 30.8382 7.14719C30.8383 7.1471 30.8384 7.14695 30.8385 7.14691L30.8785 7.1172L30.8764 7.1669Z" fill="url(#paint47_linear_1156_9219)" fill-opacity="0.95"/>
<path d="M20.759 7.59243C21.1515 7.59243 21.4698 7.91072 21.4698 8.30333C21.4698 8.37186 21.4598 8.43807 21.4418 8.50077C21.4492 8.50192 21.4573 8.50298 21.4661 8.50447C21.513 8.51247 21.5789 8.52582 21.6574 8.54761C21.814 8.59106 22.0238 8.66871 22.2345 8.80596C22.6626 9.08485 23.081 9.60209 23.081 10.5308V11.9526H22.7967V10.5308C22.7967 9.70538 22.4331 9.27465 22.0794 9.04422C21.8992 8.92684 21.7179 8.8595 21.5813 8.8216C21.5133 8.80272 21.457 8.79136 21.4183 8.78476C21.399 8.78147 21.3842 8.77933 21.3746 8.7781C21.3698 8.77748 21.3663 8.77712 21.3642 8.77689C21.3632 8.77678 21.3625 8.77665 21.3622 8.77661L21.2944 8.7705C21.1641 8.91976 20.9727 9.01423 20.759 9.01423C20.3664 9.01423 20.0481 8.69595 20.0481 8.30333C20.0482 7.91072 20.3664 7.59243 20.759 7.59243Z" fill="url(#paint48_linear_1156_9219)"/>
<path d="M20.759 7.59243C21.1515 7.59243 21.4698 7.91072 21.4698 8.30333C21.4698 8.37186 21.4598 8.43807 21.4418 8.50077C21.4492 8.50192 21.4573 8.50298 21.4661 8.50447C21.513 8.51247 21.5789 8.52582 21.6574 8.54761C21.814 8.59106 22.0238 8.66871 22.2345 8.80596C22.6626 9.08485 23.081 9.60209 23.081 10.5308V11.9526H22.7967V10.5308C22.7967 9.70538 22.4331 9.27465 22.0794 9.04422C21.8992 8.92684 21.7179 8.8595 21.5813 8.8216C21.5133 8.80272 21.457 8.79136 21.4183 8.78476C21.399 8.78147 21.3842 8.77933 21.3746 8.7781C21.3698 8.77748 21.3663 8.77712 21.3642 8.77689C21.3632 8.77678 21.3625 8.77665 21.3622 8.77661L21.2944 8.7705C21.1641 8.91976 20.9727 9.01423 20.759 9.01423C20.3664 9.01423 20.0481 8.69595 20.0481 8.30333C20.0482 7.91072 20.3664 7.59243 20.759 7.59243Z" fill="url(#paint49_linear_1156_9219)" fill-opacity="0.95"/>
<path d="M26.6351 7.59243C27.0277 7.59243 27.346 7.91072 27.346 8.30333C27.346 8.69595 27.0277 9.01423 26.6351 9.01423C26.4214 9.01423 26.2299 8.91979 26.0996 8.7705L26.0321 8.77661C26.0318 8.77665 26.0309 8.77678 26.0299 8.77689C26.0278 8.77712 26.0243 8.77748 26.0196 8.7781C26.0099 8.77933 25.9951 8.78147 25.9758 8.78476C25.9371 8.79136 25.8808 8.80272 25.8128 8.8216C25.6762 8.8595 25.495 8.92684 25.3147 9.04422C24.961 9.27465 24.5974 9.70538 24.5974 10.5308V11.9526H24.3131V10.5308C24.3131 9.60209 24.7315 9.08485 25.1596 8.80596C25.3703 8.66871 25.5801 8.59106 25.7367 8.54761C25.8152 8.52582 25.8812 8.51247 25.928 8.50447C25.9368 8.50298 25.9449 8.50192 25.9523 8.50077C25.9342 8.43808 25.9243 8.37185 25.9243 8.30333C25.9243 7.91072 26.2426 7.59243 26.6351 7.59243Z" fill="url(#paint50_linear_1156_9219)"/>
<path d="M26.6351 7.59243C27.0277 7.59243 27.346 7.91072 27.346 8.30333C27.346 8.69595 27.0277 9.01423 26.6351 9.01423C26.4214 9.01423 26.2299 8.91979 26.0996 8.7705L26.0321 8.77661C26.0318 8.77665 26.0309 8.77678 26.0299 8.77689C26.0278 8.77712 26.0243 8.77748 26.0196 8.7781C26.0099 8.77933 25.9951 8.78147 25.9758 8.78476C25.9371 8.79136 25.8808 8.80272 25.8128 8.8216C25.6762 8.8595 25.495 8.92684 25.3147 9.04422C24.961 9.27465 24.5974 9.70538 24.5974 10.5308V11.9526H24.3131V10.5308C24.3131 9.60209 24.7315 9.08485 25.1596 8.80596C25.3703 8.66871 25.5801 8.59106 25.7367 8.54761C25.8152 8.52582 25.8812 8.51247 25.928 8.50447C25.9368 8.50298 25.9449 8.50192 25.9523 8.50077C25.9342 8.43808 25.9243 8.37185 25.9243 8.30333C25.9243 7.91072 26.2426 7.59243 26.6351 7.59243Z" fill="url(#paint51_linear_1156_9219)" fill-opacity="0.95"/>
<path d="M9.08436 4.93839V6.83413L8.29477 7.29002L8.89546 8.43153L9.52789 8.06636L11.1695 9.01423V10.91L9.52789 11.8578L7.88632 10.91V9.01423L8.64898 8.5738L8.04829 7.43229L7.44279 7.782L5.80123 6.83413V4.93839L7.44279 3.99052L9.08436 4.93839Z" fill="url(#paint52_linear_1156_9219)"/>
<path d="M9.08436 4.93839V6.83413L8.29477 7.29002L8.89546 8.43153L9.52789 8.06636L11.1695 9.01423V10.91L9.52789 11.8578L7.88632 10.91V9.01423L8.64898 8.5738L8.04829 7.43229L7.44279 7.782L5.80123 6.83413V4.93839L7.44279 3.99052L9.08436 4.93839Z" fill="url(#paint53_linear_1156_9219)" fill-opacity="0.95"/>
<path d="M41.5929 4.93839V6.83413L39.9513 7.782L39.3457 7.43229L38.745 8.5738L39.5078 9.01423V10.91L37.8662 11.8578L36.2247 10.91V9.01423L37.8662 8.06636L38.4986 8.43153L39.0993 7.29002L38.3097 6.83413V4.93839L39.9513 3.99052L41.5929 4.93839Z" fill="url(#paint54_linear_1156_9219)"/>
<path d="M41.5929 4.93839V6.83413L39.9513 7.782L39.3457 7.43229L38.745 8.5738L39.5078 9.01423V10.91L37.8662 11.8578L36.2247 10.91V9.01423L37.8662 8.06636L38.4986 8.43153L39.0993 7.29002L38.3097 6.83413V4.93839L39.9513 3.99052L41.5929 4.93839Z" fill="url(#paint55_linear_1156_9219)" fill-opacity="0.95"/>
</g>
<defs>
<filter id="filter0_di_1156_9219" x="0" y="0" width="47.394" height="36.9102" filterUnits="userSpaceOnUse" color-interpolation-filters="sRGB">
<feFlood flood-opacity="0" result="BackgroundImageFix"/>
<feColorMatrix in="SourceAlpha" type="matrix" values="0 0 0 0 0 0 0 0 0 0 0 0 0 0 0 0 0 0 127 0" result="hardAlpha"/>
<feOffset dy="2"/>
<feGaussianBlur stdDeviation="2"/>
<feComposite in2="hardAlpha" operator="out"/>
<feColorMatrix type="matrix" values="0 0 0 0 0.643137 0 0 0 0 0.760784 0 0 0 0 0.956863 0 0 0 1 0"/>
<feBlend mode="normal" in2="BackgroundImageFix" result="effect1_dropShadow_1156_9219"/>
<feBlend mode="normal" in="SourceGraphic" in2="effect1_dropShadow_1156_9219" result="shape"/>
<feColorMatrix in="SourceAlpha" type="matrix" values="0 0 0 0 0 0 0 0 0 0 0 0 0 0 0 0 0 0 127 0" result="hardAlpha"/>
<feOffset dy="4"/>
<feGaussianBlur stdDeviation="2"/>
<feComposite in2="hardAlpha" operator="arithmetic" k2="-1" k3="1"/>
<feColorMatrix type="matrix" values="0 0 0 0 0.0117647 0 0 0 0 0.286275 0 0 0 0 0.772549 0 0 0 0.43 0"/>
<feBlend mode="normal" in2="shape" result="effect2_innerShadow_1156_9219"/>
</filter>
<linearGradient id="paint0_linear_1156_9219" x1="4" y1="16.455" x2="43.3941" y2="16.455" gradientUnits="userSpaceOnUse">
<stop offset="0.02" stop-color="#F9E8EC"/>
<stop offset="0.04" stop-color="#F9E8EC"/>
<stop offset="0.1" stop-color="#F8F1F7"/>
<stop offset="0.16" stop-color="#F7F2F2"/>
<stop offset="0.2" stop-color="#F5F5F5"/>
<stop offset="0.4" stop-color="#FAEBF0"/>
<stop offset="0.6" stop-color="#F2ECF4"/>
<stop offset="0.8" stop-color="#EFE2F1"/>
<stop offset="0.9" stop-color="#F5F5F5"/>
<stop offset="1" stop-color="#F8F1F7"/>
</linearGradient>
<linearGradient id="paint1_linear_1156_9219" x1="4" y1="2" x2="39.3548" y2="30.9064" gradientUnits="userSpaceOnUse">
<stop offset="0.0384615" stop-color="#5F51FF"/>
<stop offset="0.336538" stop-color="#2A1C55"/>
<stop offset="0.682692" stop-color="#4285F4"/>
<stop offset="0.923077" stop-color="#0349C5"/>
</linearGradient>
<linearGradient id="paint2_linear_1156_9219" x1="4" y1="16.455" x2="43.3941" y2="16.455" gradientUnits="userSpaceOnUse">
<stop offset="0.02" stop-color="#F9E8EC"/>
<stop offset="0.04" stop-color="#F9E8EC"/>
<stop offset="0.1" stop-color="#F8F1F7"/>
<stop offset="0.16" stop-color="#F7F2F2"/>
<stop offset="0.2" stop-color="#F5F5F5"/>
<stop offset="0.4" stop-color="#FAEBF0"/>
<stop offset="0.6" stop-color="#F2ECF4"/>
<stop offset="0.8" stop-color="#EFE2F1"/>
<stop offset="0.9" stop-color="#F5F5F5"/>
<stop offset="1" stop-color="#F8F1F7"/>
</linearGradient>
<linearGradient id="paint3_linear_1156_9219" x1="4" y1="2" x2="39.3548" y2="30.9064" gradientUnits="userSpaceOnUse">
<stop offset="0.0384615" stop-color="#5F51FF"/>
<stop offset="0.336538" stop-color="#2A1C55"/>
<stop offset="0.682692" stop-color="#4285F4"/>
<stop offset="0.923077" stop-color="#0349C5"/>
</linearGradient>
<linearGradient id="paint4_linear_1156_9219" x1="4" y1="16.455" x2="43.3941" y2="16.455" gradientUnits="userSpaceOnUse">
<stop offset="0.02" stop-color="#F9E8EC"/>
<stop offset="0.04" stop-color="#F9E8EC"/>
<stop offset="0.1" stop-color="#F8F1F7"/>
<stop offset="0.16" stop-color="#F7F2F2"/>
<stop offset="0.2" stop-color="#F5F5F5"/>
<stop offset="0.4" stop-color="#FAEBF0"/>
<stop offset="0.6" stop-color="#F2ECF4"/>
<stop offset="0.8" stop-color="#EFE2F1"/>
<stop offset="0.9" stop-color="#F5F5F5"/>
<stop offset="1" stop-color="#F8F1F7"/>
</linearGradient>
<linearGradient id="paint5_linear_1156_9219" x1="4" y1="2" x2="39.3548" y2="30.9064" gradientUnits="userSpaceOnUse">
<stop offset="0.0384615" stop-color="#5F51FF"/>
<stop offset="0.336538" stop-color="#2A1C55"/>
<stop offset="0.682692" stop-color="#4285F4"/>
<stop offset="0.923077" stop-color="#0349C5"/>
</linearGradient>
<linearGradient id="paint6_linear_1156_9219" x1="4" y1="16.455" x2="43.3941" y2="16.455" gradientUnits="userSpaceOnUse">
<stop offset="0.02" stop-color="#F9E8EC"/>
<stop offset="0.04" stop-color="#F9E8EC"/>
<stop offset="0.1" stop-color="#F8F1F7"/>
<stop offset="0.16" stop-color="#F7F2F2"/>
<stop offset="0.2" stop-color="#F5F5F5"/>
<stop offset="0.4" stop-color="#FAEBF0"/>
<stop offset="0.6" stop-color="#F2ECF4"/>
<stop offset="0.8" stop-color="#EFE2F1"/>
<stop offset="0.9" stop-color="#F5F5F5"/>
<stop offset="1" stop-color="#F8F1F7"/>
</linearGradient>
<linearGradient id="paint7_linear_1156_9219" x1="4" y1="2" x2="39.3548" y2="30.9064" gradientUnits="userSpaceOnUse">
<stop offset="0.0384615" stop-color="#5F51FF"/>
<stop offset="0.336538" stop-color="#2A1C55"/>
<stop offset="0.682692" stop-color="#4285F4"/>
<stop offset="0.923077" stop-color="#0349C5"/>
</linearGradient>
<linearGradient id="paint8_linear_1156_9219" x1="4" y1="16.455" x2="43.3941" y2="16.455" gradientUnits="userSpaceOnUse">
<stop offset="0.02" stop-color="#F9E8EC"/>
<stop offset="0.04" stop-color="#F9E8EC"/>
<stop offset="0.1" stop-color="#F8F1F7"/>
<stop offset="0.16" stop-color="#F7F2F2"/>
<stop offset="0.2" stop-color="#F5F5F5"/>
<stop offset="0.4" stop-color="#FAEBF0"/>
<stop offset="0.6" stop-color="#F2ECF4"/>
<stop offset="0.8" stop-color="#EFE2F1"/>
<stop offset="0.9" stop-color="#F5F5F5"/>
<stop offset="1" stop-color="#F8F1F7"/>
</linearGradient>
<linearGradient id="paint9_linear_1156_9219" x1="4" y1="2" x2="39.3548" y2="30.9064" gradientUnits="userSpaceOnUse">
<stop offset="0.0384615" stop-color="#5F51FF"/>
<stop offset="0.336538" stop-color="#2A1C55"/>
<stop offset="0.682692" stop-color="#4285F4"/>
<stop offset="0.923077" stop-color="#0349C5"/>
</linearGradient>
<linearGradient id="paint10_linear_1156_9219" x1="4" y1="16.455" x2="43.3941" y2="16.455" gradientUnits="userSpaceOnUse">
<stop offset="0.02" stop-color="#F9E8EC"/>
<stop offset="0.04" stop-color="#F9E8EC"/>
<stop offset="0.1" stop-color="#F8F1F7"/>
<stop offset="0.16" stop-color="#F7F2F2"/>
<stop offset="0.2" stop-color="#F5F5F5"/>
<stop offset="0.4" stop-color="#FAEBF0"/>
<stop offset="0.6" stop-color="#F2ECF4"/>
<stop offset="0.8" stop-color="#EFE2F1"/>
<stop offset="0.9" stop-color="#F5F5F5"/>
<stop offset="1" stop-color="#F8F1F7"/>
</linearGradient>
<linearGradient id="paint11_linear_1156_9219" x1="4" y1="2" x2="39.3548" y2="30.9064" gradientUnits="userSpaceOnUse">
<stop offset="0.0384615" stop-color="#5F51FF"/>
<stop offset="0.336538" stop-color="#2A1C55"/>
<stop offset="0.682692" stop-color="#4285F4"/>
<stop offset="0.923077" stop-color="#0349C5"/>
</linearGradient>
<linearGradient id="paint12_linear_1156_9219" x1="4" y1="16.455" x2="43.3941" y2="16.455" gradientUnits="userSpaceOnUse">
<stop offset="0.02" stop-color="#F9E8EC"/>
<stop offset="0.04" stop-color="#F9E8EC"/>
<stop offset="0.1" stop-color="#F8F1F7"/>
<stop offset="0.16" stop-color="#F7F2F2"/>
<stop offset="0.2" stop-color="#F5F5F5"/>
<stop offset="0.4" stop-color="#FAEBF0"/>
<stop offset="0.6" stop-color="#F2ECF4"/>
<stop offset="0.8" stop-color="#EFE2F1"/>
<stop offset="0.9" stop-color="#F5F5F5"/>
<stop offset="1" stop-color="#F8F1F7"/>
</linearGradient>
<linearGradient id="paint13_linear_1156_9219" x1="4" y1="2" x2="39.3548" y2="30.9064" gradientUnits="userSpaceOnUse">
<stop offset="0.0384615" stop-color="#5F51FF"/>
<stop offset="0.336538" stop-color="#2A1C55"/>
<stop offset="0.682692" stop-color="#4285F4"/>
<stop offset="0.923077" stop-color="#0349C5"/>
</linearGradient>
<linearGradient id="paint14_linear_1156_9219" x1="4" y1="16.455" x2="43.3941" y2="16.455" gradientUnits="userSpaceOnUse">
<stop offset="0.02" stop-color="#F9E8EC"/>
<stop offset="0.04" stop-color="#F9E8EC"/>
<stop offset="0.1" stop-color="#F8F1F7"/>
<stop offset="0.16" stop-color="#F7F2F2"/>
<stop offset="0.2" stop-color="#F5F5F5"/>
<stop offset="0.4" stop-color="#FAEBF0"/>
<stop offset="0.6" stop-color="#F2ECF4"/>
<stop offset="0.8" stop-color="#EFE2F1"/>
<stop offset="0.9" stop-color="#F5F5F5"/>
<stop offset="1" stop-color="#F8F1F7"/>
</linearGradient>
<linearGradient id="paint15_linear_1156_9219" x1="4" y1="2" x2="39.3548" y2="30.9064" gradientUnits="userSpaceOnUse">
<stop offset="0.0384615" stop-color="#5F51FF"/>
<stop offset="0.336538" stop-color="#2A1C55"/>
<stop offset="0.682692" stop-color="#4285F4"/>
<stop offset="0.923077" stop-color="#0349C5"/>
</linearGradient>
<linearGradient id="paint16_linear_1156_9219" x1="4" y1="16.455" x2="43.3941" y2="16.455" gradientUnits="userSpaceOnUse">
<stop offset="0.02" stop-color="#F9E8EC"/>
<stop offset="0.04" stop-color="#F9E8EC"/>
<stop offset="0.1" stop-color="#F8F1F7"/>
<stop offset="0.16" stop-color="#F7F2F2"/>
<stop offset="0.2" stop-color="#F5F5F5"/>
<stop offset="0.4" stop-color="#FAEBF0"/>
<stop offset="0.6" stop-color="#F2ECF4"/>
<stop offset="0.8" stop-color="#EFE2F1"/>
<stop offset="0.9" stop-color="#F5F5F5"/>
<stop offset="1" stop-color="#F8F1F7"/>
</linearGradient>
<linearGradient id="paint17_linear_1156_9219" x1="4" y1="2" x2="39.3548" y2="30.9064" gradientUnits="userSpaceOnUse">
<stop offset="0.0384615" stop-color="#5F51FF"/>
<stop offset="0.336538" stop-color="#2A1C55"/>
<stop offset="0.682692" stop-color="#4285F4"/>
<stop offset="0.923077" stop-color="#0349C5"/>
</linearGradient>
<linearGradient id="paint18_linear_1156_9219" x1="4" y1="16.455" x2="43.3941" y2="16.455" gradientUnits="userSpaceOnUse">
<stop offset="0.02" stop-color="#F9E8EC"/>
<stop offset="0.04" stop-color="#F9E8EC"/>
<stop offset="0.1" stop-color="#F8F1F7"/>
<stop offset="0.16" stop-color="#F7F2F2"/>
<stop offset="0.2" stop-color="#F5F5F5"/>
<stop offset="0.4" stop-color="#FAEBF0"/>
<stop offset="0.6" stop-color="#F2ECF4"/>
<stop offset="0.8" stop-color="#EFE2F1"/>
<stop offset="0.9" stop-color="#F5F5F5"/>
<stop offset="1" stop-color="#F8F1F7"/>
</linearGradient>
<linearGradient id="paint19_linear_1156_9219" x1="4" y1="2" x2="39.3548" y2="30.9064" gradientUnits="userSpaceOnUse">
<stop offset="0.0384615" stop-color="#5F51FF"/>
<stop offset="0.336538" stop-color="#2A1C55"/>
<stop offset="0.682692" stop-color="#4285F4"/>
<stop offset="0.923077" stop-color="#0349C5"/>
</linearGradient>
<linearGradient id="paint20_linear_1156_9219" x1="4" y1="16.455" x2="43.3941" y2="16.455" gradientUnits="userSpaceOnUse">
<stop offset="0.02" stop-color="#F9E8EC"/>
<stop offset="0.04" stop-color="#F9E8EC"/>
<stop offset="0.1" stop-color="#F8F1F7"/>
<stop offset="0.16" stop-color="#F7F2F2"/>
<stop offset="0.2" stop-color="#F5F5F5"/>
<stop offset="0.4" stop-color="#FAEBF0"/>
<stop offset="0.6" stop-color="#F2ECF4"/>
<stop offset="0.8" stop-color="#EFE2F1"/>
<stop offset="0.9" stop-color="#F5F5F5"/>
<stop offset="1" stop-color="#F8F1F7"/>
</linearGradient>
<linearGradient id="paint21_linear_1156_9219" x1="4" y1="2" x2="39.3548" y2="30.9064" gradientUnits="userSpaceOnUse">
<stop offset="0.0384615" stop-color="#5F51FF"/>
<stop offset="0.336538" stop-color="#2A1C55"/>
<stop offset="0.682692" stop-color="#4285F4"/>
<stop offset="0.923077" stop-color="#0349C5"/>
</linearGradient>
<linearGradient id="paint22_linear_1156_9219" x1="4" y1="16.455" x2="43.3941" y2="16.455" gradientUnits="userSpaceOnUse">
<stop offset="0.02" stop-color="#F9E8EC"/>
<stop offset="0.04" stop-color="#F9E8EC"/>
<stop offset="0.1" stop-color="#F8F1F7"/>
<stop offset="0.16" stop-color="#F7F2F2"/>
<stop offset="0.2" stop-color="#F5F5F5"/>
<stop offset="0.4" stop-color="#FAEBF0"/>
<stop offset="0.6" stop-color="#F2ECF4"/>
<stop offset="0.8" stop-color="#EFE2F1"/>
<stop offset="0.9" stop-color="#F5F5F5"/>
<stop offset="1" stop-color="#F8F1F7"/>
</linearGradient>
<linearGradient id="paint23_linear_1156_9219" x1="4" y1="2" x2="39.3548" y2="30.9064" gradientUnits="userSpaceOnUse">
<stop offset="0.0384615" stop-color="#5F51FF"/>
<stop offset="0.336538" stop-color="#2A1C55"/>
<stop offset="0.682692" stop-color="#4285F4"/>
<stop offset="0.923077" stop-color="#0349C5"/>
</linearGradient>
<linearGradient id="paint24_linear_1156_9219" x1="4" y1="16.455" x2="43.3941" y2="16.455" gradientUnits="userSpaceOnUse">
<stop offset="0.02" stop-color="#F9E8EC"/>
<stop offset="0.04" stop-color="#F9E8EC"/>
<stop offset="0.1" stop-color="#F8F1F7"/>
<stop offset="0.16" stop-color="#F7F2F2"/>
<stop offset="0.2" stop-color="#F5F5F5"/>
<stop offset="0.4" stop-color="#FAEBF0"/>
<stop offset="0.6" stop-color="#F2ECF4"/>
<stop offset="0.8" stop-color="#EFE2F1"/>
<stop offset="0.9" stop-color="#F5F5F5"/>
<stop offset="1" stop-color="#F8F1F7"/>
</linearGradient>
<linearGradient id="paint25_linear_1156_9219" x1="4" y1="2" x2="39.3548" y2="30.9064" gradientUnits="userSpaceOnUse">
<stop offset="0.0384615" stop-color="#5F51FF"/>
<stop offset="0.336538" stop-color="#2A1C55"/>
<stop offset="0.682692" stop-color="#4285F4"/>
<stop offset="0.923077" stop-color="#0349C5"/>
</linearGradient>
<linearGradient id="paint26_linear_1156_9219" x1="4" y1="16.455" x2="43.3941" y2="16.455" gradientUnits="userSpaceOnUse">
<stop offset="0.02" stop-color="#F9E8EC"/>
<stop offset="0.04" stop-color="#F9E8EC"/>
<stop offset="0.1" stop-color="#F8F1F7"/>
<stop offset="0.16" stop-color="#F7F2F2"/>
<stop offset="0.2" stop-color="#F5F5F5"/>
<stop offset="0.4" stop-color="#FAEBF0"/>
<stop offset="0.6" stop-color="#F2ECF4"/>
<stop offset="0.8" stop-color="#EFE2F1"/>
<stop offset="0.9" stop-color="#F5F5F5"/>
<stop offset="1" stop-color="#F8F1F7"/>
</linearGradient>
<linearGradient id="paint27_linear_1156_9219" x1="4" y1="2" x2="39.3548" y2="30.9064" gradientUnits="userSpaceOnUse">
<stop offset="0.0384615" stop-color="#5F51FF"/>
<stop offset="0.336538" stop-color="#2A1C55"/>
<stop offset="0.682692" stop-color="#4285F4"/>
<stop offset="0.923077" stop-color="#0349C5"/>
</linearGradient>
<linearGradient id="paint28_linear_1156_9219" x1="4" y1="16.455" x2="43.3941" y2="16.455" gradientUnits="userSpaceOnUse">
<stop offset="0.02" stop-color="#F9E8EC"/>
<stop offset="0.04" stop-color="#F9E8EC"/>
<stop offset="0.1" stop-color="#F8F1F7"/>
<stop offset="0.16" stop-color="#F7F2F2"/>
<stop offset="0.2" stop-color="#F5F5F5"/>
<stop offset="0.4" stop-color="#FAEBF0"/>
<stop offset="0.6" stop-color="#F2ECF4"/>
<stop offset="0.8" stop-color="#EFE2F1"/>
<stop offset="0.9" stop-color="#F5F5F5"/>
<stop offset="1" stop-color="#F8F1F7"/>
</linearGradient>
<linearGradient id="paint29_linear_1156_9219" x1="4" y1="2" x2="39.3548" y2="30.9064" gradientUnits="userSpaceOnUse">
<stop offset="0.0384615" stop-color="#5F51FF"/>
<stop offset="0.336538" stop-color="#2A1C55"/>
<stop offset="0.682692" stop-color="#4285F4"/>
<stop offset="0.923077" stop-color="#0349C5"/>
</linearGradient>
<linearGradient id="paint30_linear_1156_9219" x1="4" y1="16.455" x2="43.3941" y2="16.455" gradientUnits="userSpaceOnUse">
<stop offset="0.02" stop-color="#F9E8EC"/>
<stop offset="0.04" stop-color="#F9E8EC"/>
<stop offset="0.1" stop-color="#F8F1F7"/>
<stop offset="0.16" stop-color="#F7F2F2"/>
<stop offset="0.2" stop-color="#F5F5F5"/>
<stop offset="0.4" stop-color="#FAEBF0"/>
<stop offset="0.6" stop-color="#F2ECF4"/>
<stop offset="0.8" stop-color="#EFE2F1"/>
<stop offset="0.9" stop-color="#F5F5F5"/>
<stop offset="1" stop-color="#F8F1F7"/>
</linearGradient>
<linearGradient id="paint31_linear_1156_9219" x1="4" y1="2" x2="39.3548" y2="30.9064" gradientUnits="userSpaceOnUse">
<stop offset="0.0384615" stop-color="#5F51FF"/>
<stop offset="0.336538" stop-color="#2A1C55"/>
<stop offset="0.682692" stop-color="#4285F4"/>
<stop offset="0.923077" stop-color="#0349C5"/>
</linearGradient>
<linearGradient id="paint32_linear_1156_9219" x1="4" y1="16.455" x2="43.3941" y2="16.455" gradientUnits="userSpaceOnUse">
<stop offset="0.02" stop-color="#F9E8EC"/>
<stop offset="0.04" stop-color="#F9E8EC"/>
<stop offset="0.1" stop-color="#F8F1F7"/>
<stop offset="0.16" stop-color="#F7F2F2"/>
<stop offset="0.2" stop-color="#F5F5F5"/>
<stop offset="0.4" stop-color="#FAEBF0"/>
<stop offset="0.6" stop-color="#F2ECF4"/>
<stop offset="0.8" stop-color="#EFE2F1"/>
<stop offset="0.9" stop-color="#F5F5F5"/>
<stop offset="1" stop-color="#F8F1F7"/>
</linearGradient>
<linearGradient id="paint33_linear_1156_9219" x1="4" y1="2" x2="39.3548" y2="30.9064" gradientUnits="userSpaceOnUse">
<stop offset="0.0384615" stop-color="#5F51FF"/>
<stop offset="0.336538" stop-color="#2A1C55"/>
<stop offset="0.682692" stop-color="#4285F4"/>
<stop offset="0.923077" stop-color="#0349C5"/>
</linearGradient>
<linearGradient id="paint34_linear_1156_9219" x1="4" y1="16.455" x2="43.3941" y2="16.455" gradientUnits="userSpaceOnUse">
<stop offset="0.02" stop-color="#F9E8EC"/>
<stop offset="0.04" stop-color="#F9E8EC"/>
<stop offset="0.1" stop-color="#F8F1F7"/>
<stop offset="0.16" stop-color="#F7F2F2"/>
<stop offset="0.2" stop-color="#F5F5F5"/>
<stop offset="0.4" stop-color="#FAEBF0"/>
<stop offset="0.6" stop-color="#F2ECF4"/>
<stop offset="0.8" stop-color="#EFE2F1"/>
<stop offset="0.9" stop-color="#F5F5F5"/>
<stop offset="1" stop-color="#F8F1F7"/>
</linearGradient>
<linearGradient id="paint35_linear_1156_9219" x1="4" y1="2" x2="39.3548" y2="30.9064" gradientUnits="userSpaceOnUse">
<stop offset="0.0384615" stop-color="#5F51FF"/>
<stop offset="0.336538" stop-color="#2A1C55"/>
<stop offset="0.682692" stop-color="#4285F4"/>
<stop offset="0.923077" stop-color="#0349C5"/>
</linearGradient>
<linearGradient id="paint36_linear_1156_9219" x1="4" y1="16.455" x2="43.3941" y2="16.455" gradientUnits="userSpaceOnUse">
<stop offset="0.02" stop-color="#F9E8EC"/>
<stop offset="0.04" stop-color="#F9E8EC"/>
<stop offset="0.1" stop-color="#F8F1F7"/>
<stop offset="0.16" stop-color="#F7F2F2"/>
<stop offset="0.2" stop-color="#F5F5F5"/>
<stop offset="0.4" stop-color="#FAEBF0"/>
<stop offset="0.6" stop-color="#F2ECF4"/>
<stop offset="0.8" stop-color="#EFE2F1"/>
<stop offset="0.9" stop-color="#F5F5F5"/>
<stop offset="1" stop-color="#F8F1F7"/>
</linearGradient>
<linearGradient id="paint37_linear_1156_9219" x1="4" y1="2" x2="39.3548" y2="30.9064" gradientUnits="userSpaceOnUse">
<stop offset="0.0384615" stop-color="#5F51FF"/>
<stop offset="0.336538" stop-color="#2A1C55"/>
<stop offset="0.682692" stop-color="#4285F4"/>
<stop offset="0.923077" stop-color="#0349C5"/>
</linearGradient>
<linearGradient id="paint38_linear_1156_9219" x1="4" y1="16.455" x2="43.3941" y2="16.455" gradientUnits="userSpaceOnUse">
<stop offset="0.02" stop-color="#F9E8EC"/>
<stop offset="0.04" stop-color="#F9E8EC"/>
<stop offset="0.1" stop-color="#F8F1F7"/>
<stop offset="0.16" stop-color="#F7F2F2"/>
<stop offset="0.2" stop-color="#F5F5F5"/>
<stop offset="0.4" stop-color="#FAEBF0"/>
<stop offset="0.6" stop-color="#F2ECF4"/>
<stop offset="0.8" stop-color="#EFE2F1"/>
<stop offset="0.9" stop-color="#F5F5F5"/>
<stop offset="1" stop-color="#F8F1F7"/>
</linearGradient>
<linearGradient id="paint39_linear_1156_9219" x1="4" y1="2" x2="39.3548" y2="30.9064" gradientUnits="userSpaceOnUse">
<stop offset="0.0384615" stop-color="#5F51FF"/>
<stop offset="0.336538" stop-color="#2A1C55"/>
<stop offset="0.682692" stop-color="#4285F4"/>
<stop offset="0.923077" stop-color="#0349C5"/>
</linearGradient>
<linearGradient id="paint40_linear_1156_9219" x1="4" y1="16.455" x2="43.3941" y2="16.455" gradientUnits="userSpaceOnUse">
<stop offset="0.02" stop-color="#F9E8EC"/>
<stop offset="0.04" stop-color="#F9E8EC"/>
<stop offset="0.1" stop-color="#F8F1F7"/>
<stop offset="0.16" stop-color="#F7F2F2"/>
<stop offset="0.2" stop-color="#F5F5F5"/>
<stop offset="0.4" stop-color="#FAEBF0"/>
<stop offset="0.6" stop-color="#F2ECF4"/>
<stop offset="0.8" stop-color="#EFE2F1"/>
<stop offset="0.9" stop-color="#F5F5F5"/>
<stop offset="1" stop-color="#F8F1F7"/>
</linearGradient>
<linearGradient id="paint41_linear_1156_9219" x1="4" y1="2" x2="39.3548" y2="30.9064" gradientUnits="userSpaceOnUse">
<stop offset="0.0384615" stop-color="#5F51FF"/>
<stop offset="0.336538" stop-color="#2A1C55"/>
<stop offset="0.682692" stop-color="#4285F4"/>
<stop offset="0.923077" stop-color="#0349C5"/>
</linearGradient>
<linearGradient id="paint42_linear_1156_9219" x1="4" y1="16.455" x2="43.3941" y2="16.455" gradientUnits="userSpaceOnUse">
<stop offset="0.02" stop-color="#F9E8EC"/>
<stop offset="0.04" stop-color="#F9E8EC"/>
<stop offset="0.1" stop-color="#F8F1F7"/>
<stop offset="0.16" stop-color="#F7F2F2"/>
<stop offset="0.2" stop-color="#F5F5F5"/>
<stop offset="0.4" stop-color="#FAEBF0"/>
<stop offset="0.6" stop-color="#F2ECF4"/>
<stop offset="0.8" stop-color="#EFE2F1"/>
<stop offset="0.9" stop-color="#F5F5F5"/>
<stop offset="1" stop-color="#F8F1F7"/>
</linearGradient>
<linearGradient id="paint43_linear_1156_9219" x1="4" y1="2" x2="39.3548" y2="30.9064" gradientUnits="userSpaceOnUse">
<stop offset="0.0384615" stop-color="#5F51FF"/>
<stop offset="0.336538" stop-color="#2A1C55"/>
<stop offset="0.682692" stop-color="#4285F4"/>
<stop offset="0.923077" stop-color="#0349C5"/>
</linearGradient>
<linearGradient id="paint44_linear_1156_9219" x1="4" y1="16.455" x2="43.3941" y2="16.455" gradientUnits="userSpaceOnUse">
<stop offset="0.02" stop-color="#F9E8EC"/>
<stop offset="0.04" stop-color="#F9E8EC"/>
<stop offset="0.1" stop-color="#F8F1F7"/>
<stop offset="0.16" stop-color="#F7F2F2"/>
<stop offset="0.2" stop-color="#F5F5F5"/>
<stop offset="0.4" stop-color="#FAEBF0"/>
<stop offset="0.6" stop-color="#F2ECF4"/>
<stop offset="0.8" stop-color="#EFE2F1"/>
<stop offset="0.9" stop-color="#F5F5F5"/>
<stop offset="1" stop-color="#F8F1F7"/>
</linearGradient>
<linearGradient id="paint45_linear_1156_9219" x1="4" y1="2" x2="39.3548" y2="30.9064" gradientUnits="userSpaceOnUse">
<stop offset="0.0384615" stop-color="#5F51FF"/>
<stop offset="0.336538" stop-color="#2A1C55"/>
<stop offset="0.682692" stop-color="#4285F4"/>
<stop offset="0.923077" stop-color="#0349C5"/>
</linearGradient>
<linearGradient id="paint46_linear_1156_9219" x1="4" y1="16.455" x2="43.3941" y2="16.455" gradientUnits="userSpaceOnUse">
<stop offset="0.02" stop-color="#F9E8EC"/>
<stop offset="0.04" stop-color="#F9E8EC"/>
<stop offset="0.1" stop-color="#F8F1F7"/>
<stop offset="0.16" stop-color="#F7F2F2"/>
<stop offset="0.2" stop-color="#F5F5F5"/>
<stop offset="0.4" stop-color="#FAEBF0"/>
<stop offset="0.6" stop-color="#F2ECF4"/>
<stop offset="0.8" stop-color="#EFE2F1"/>
<stop offset="0.9" stop-color="#F5F5F5"/>
<stop offset="1" stop-color="#F8F1F7"/>
</linearGradient>
<linearGradient id="paint47_linear_1156_9219" x1="4" y1="2" x2="39.3548" y2="30.9064" gradientUnits="userSpaceOnUse">
<stop offset="0.0384615" stop-color="#5F51FF"/>
<stop offset="0.336538" stop-color="#2A1C55"/>
<stop offset="0.682692" stop-color="#4285F4"/>
<stop offset="0.923077" stop-color="#0349C5"/>
</linearGradient>
<linearGradient id="paint48_linear_1156_9219" x1="4" y1="16.455" x2="43.3941" y2="16.455" gradientUnits="userSpaceOnUse">
<stop offset="0.02" stop-color="#F9E8EC"/>
<stop offset="0.04" stop-color="#F9E8EC"/>
<stop offset="0.1" stop-color="#F8F1F7"/>
<stop offset="0.16" stop-color="#F7F2F2"/>
<stop offset="0.2" stop-color="#F5F5F5"/>
<stop offset="0.4" stop-color="#FAEBF0"/>
<stop offset="0.6" stop-color="#F2ECF4"/>
<stop offset="0.8" stop-color="#EFE2F1"/>
<stop offset="0.9" stop-color="#F5F5F5"/>
<stop offset="1" stop-color="#F8F1F7"/>
</linearGradient>
<linearGradient id="paint49_linear_1156_9219" x1="4" y1="2" x2="39.3548" y2="30.9064" gradientUnits="userSpaceOnUse">
<stop offset="0.0384615" stop-color="#5F51FF"/>
<stop offset="0.336538" stop-color="#2A1C55"/>
<stop offset="0.682692" stop-color="#4285F4"/>
<stop offset="0.923077" stop-color="#0349C5"/>
</linearGradient>
<linearGradient id="paint50_linear_1156_9219" x1="4" y1="16.455" x2="43.3941" y2="16.455" gradientUnits="userSpaceOnUse">
<stop offset="0.02" stop-color="#F9E8EC"/>
<stop offset="0.04" stop-color="#F9E8EC"/>
<stop offset="0.1" stop-color="#F8F1F7"/>
<stop offset="0.16" stop-color="#F7F2F2"/>
<stop offset="0.2" stop-color="#F5F5F5"/>
<stop offset="0.4" stop-color="#FAEBF0"/>
<stop offset="0.6" stop-color="#F2ECF4"/>
<stop offset="0.8" stop-color="#EFE2F1"/>
<stop offset="0.9" stop-color="#F5F5F5"/>
<stop offset="1" stop-color="#F8F1F7"/>
</linearGradient>
<linearGradient id="paint51_linear_1156_9219" x1="4" y1="2" x2="39.3548" y2="30.9064" gradientUnits="userSpaceOnUse">
<stop offset="0.0384615" stop-color="#5F51FF"/>
<stop offset="0.336538" stop-color="#2A1C55"/>
<stop offset="0.682692" stop-color="#4285F4"/>
<stop offset="0.923077" stop-color="#0349C5"/>
</linearGradient>
<linearGradient id="paint52_linear_1156_9219" x1="4" y1="16.455" x2="43.3941" y2="16.455" gradientUnits="userSpaceOnUse">
<stop offset="0.02" stop-color="#F9E8EC"/>
<stop offset="0.04" stop-color="#F9E8EC"/>
<stop offset="0.1" stop-color="#F8F1F7"/>
<stop offset="0.16" stop-color="#F7F2F2"/>
<stop offset="0.2" stop-color="#F5F5F5"/>
<stop offset="0.4" stop-color="#FAEBF0"/>
<stop offset="0.6" stop-color="#F2ECF4"/>
<stop offset="0.8" stop-color="#EFE2F1"/>
<stop offset="0.9" stop-color="#F5F5F5"/>
<stop offset="1" stop-color="#F8F1F7"/>
</linearGradient>
<linearGradient id="paint53_linear_1156_9219" x1="4" y1="2" x2="39.3548" y2="30.9064" gradientUnits="userSpaceOnUse">
<stop offset="0.0384615" stop-color="#5F51FF"/>
<stop offset="0.336538" stop-color="#2A1C55"/>
<stop offset="0.682692" stop-color="#4285F4"/>
<stop offset="0.923077" stop-color="#0349C5"/>
</linearGradient>
<linearGradient id="paint54_linear_1156_9219" x1="4" y1="16.455" x2="43.3941" y2="16.455" gradientUnits="userSpaceOnUse">
<stop offset="0.02" stop-color="#F9E8EC"/>
<stop offset="0.04" stop-color="#F9E8EC"/>
<stop offset="0.1" stop-color="#F8F1F7"/>
<stop offset="0.16" stop-color="#F7F2F2"/>
<stop offset="0.2" stop-color="#F5F5F5"/>
<stop offset="0.4" stop-color="#FAEBF0"/>
<stop offset="0.6" stop-color="#F2ECF4"/>
<stop offset="0.8" stop-color="#EFE2F1"/>
<stop offset="0.9" stop-color="#F5F5F5"/>
<stop offset="1" stop-color="#F8F1F7"/>
</linearGradient>
<linearGradient id="paint55_linear_1156_9219" x1="4" y1="2" x2="39.3548" y2="30.9064" gradientUnits="userSpaceOnUse">
<stop offset="0.0384615" stop-color="#5F51FF"/>
<stop offset="0.336538" stop-color="#2A1C55"/>
<stop offset="0.682692" stop-color="#4285F4"/>
<stop offset="0.923077" stop-color="#0349C5"/>
</linearGradient>
</defs>
</svg>
