<svg width="14" height="12" viewBox="0 0 14 12" fill="white" xmlns="http://www.w3.org/2000/svg">
  <path fill-rule="evenodd" clip-rule="evenodd" d="M1.2 1C0.537258 1 0 1.53726 0 2.2V10.2C0 10.8627 0.537259 11.4 1.2 11.4H11.8667C12.5294 11.4 13.0667 10.8627 13.0667 10.2V2.2C13.0667 1.53726 12.5294 1 11.8667 1H1.2ZM1.06667 2.2C1.06667 2.12636 1.12636 2.06667 1.2 2.06667H6.1332V10.3333H1.2C1.12636 10.3333 1.06667 10.2736 1.06667 10.2V2.2ZM7.19987 10.3333H11.8667C11.9403 10.3333 12 10.2736 12 10.2V2.2C12 2.12636 11.9403 2.06667 11.8667 2.06667H7.19987V10.3333Z" fill="currentColor"/>
</svg>