<svg width="264" height="41" viewBox="0 0 264 41" fill="none" xmlns="http://www.w3.org/2000/svg">
<path fill-rule="evenodd" clip-rule="evenodd" d="M222.882 0.0585938H214.884V11.3449L208.499 11.3636V17.6044L214.884 17.581V39.9608H222.882V17.5518L229.169 17.5288L234.23 11.2881L222.882 11.3214V0.0585938ZM68.4629 2.08152H76.461V39.8091H68.4629V2.08152ZM99.7468 2.08152H91.7069L76.4611 20.9959H84.5009L99.7468 2.08152ZM91.8082 39.9102H99.848L84.5009 20.9959H76.4611L91.8082 39.9102ZM184.537 12.5137C183.774 12.9902 183.106 13.5619 182.629 14.1336L182.009 11.2273H175.619V39.9102H183.154V22.9957C183.536 20.8516 184.442 19.1364 185.825 17.8976C187.16 16.7065 188.734 16.0871 190.546 16.0871C192.644 16.0871 194.266 16.7065 195.506 17.9453C196.698 19.2317 197.318 21.2804 197.318 24.0439V39.9102H204.853V21.471C204.853 19.8034 204.519 18.2788 203.899 16.8494C203.232 15.5154 202.326 14.3242 201.181 13.3237C200.036 12.3708 198.701 11.6561 197.175 11.0843C195.649 10.5602 193.98 10.2744 192.263 10.2744C191.404 10.2744 190.498 10.3697 189.592 10.5126C188.638 10.7032 187.78 10.989 186.922 11.2749C186.063 11.6561 185.252 12.0372 184.537 12.5137ZM122.21 37.7181C122.926 37.2417 123.546 36.6699 124.07 36.0982L124.738 39.9574H131.128V11.2273H123.593V27.2361C123.164 29.4278 122.306 31.0954 120.97 32.2865C119.587 33.5253 118.014 34.1447 116.201 34.1447C114.103 34.1447 112.434 33.5253 111.242 32.2389C110.002 31.0001 109.429 28.999 109.429 26.1879V11.2273H101.894V28.7608C101.894 30.476 102.228 32.0007 102.896 33.3347C103.516 34.7165 104.422 35.9076 105.566 36.9081C106.711 37.8611 108.046 38.5757 109.572 39.1475C111.098 39.6716 112.72 39.9574 114.484 39.9574C115.343 39.9574 116.201 39.8622 117.155 39.7192C118.014 39.5286 118.92 39.2428 119.778 38.9569C120.637 38.5757 121.447 38.1946 122.21 37.7181ZM162.141 11.3284H168.722V39.8204H162.331L161.425 35.437C160.853 36.1517 160.138 36.8187 159.327 37.4381C158.468 38.0098 157.61 38.4863 156.656 38.9151C155.655 39.2963 154.653 39.5821 153.604 39.8204C152.555 40.0109 151.506 40.0586 150.504 40.0586C148.549 40.0109 146.737 39.6298 145.02 38.8675C143.255 38.1051 141.729 37.0569 140.441 35.7705C139.106 34.4364 138.057 32.9118 137.294 31.1013C136.531 29.3384 136.149 27.3849 136.149 25.2885C136.149 23.1445 136.531 21.1434 137.342 19.2852C138.105 17.4747 139.201 15.9024 140.537 14.5683C141.872 13.2819 143.398 12.2337 145.115 11.4714C146.832 10.7567 148.597 10.3755 150.456 10.3755C152.746 10.3755 154.796 10.7567 156.704 11.519C158.564 12.2813 160.09 13.3772 161.282 14.7589L162.141 11.3284ZM151.983 34.2459C153.127 34.2459 154.176 34.0076 155.226 33.6265C156.227 33.2453 157.133 32.6259 157.896 31.8159C158.612 31.0536 159.184 30.1483 159.661 29.0049C160.042 27.909 160.281 26.6702 160.281 25.2885C160.281 23.8592 160.042 22.6204 159.661 21.4769C159.184 20.381 158.612 19.4281 157.896 18.6182C157.133 17.8558 156.227 17.2841 155.226 16.8553C154.176 16.4741 153.127 16.2359 151.983 16.2359C150.838 16.2359 149.741 16.4741 148.74 16.8553C147.69 17.2841 146.832 17.8558 146.117 18.6182C145.354 19.4281 144.734 20.381 144.352 21.4769C143.875 22.6204 143.684 23.8592 143.684 25.2885C143.684 26.6702 143.875 27.909 144.352 29.0049C144.734 30.1483 145.354 31.0536 146.117 31.8159C146.832 32.6259 147.69 33.2453 148.74 33.6265C149.741 34.0076 150.838 34.2459 151.983 34.2459ZM263.934 11.3284H257.353L256.494 14.7589C255.302 13.3772 253.776 12.2813 251.916 11.519C250.008 10.7567 247.958 10.3755 245.669 10.3755C243.809 10.3755 242.044 10.7567 240.327 11.4714C238.61 12.2337 237.084 13.2819 235.749 14.5683C234.414 15.9024 233.317 17.4747 232.554 19.2852C231.743 21.1434 231.361 23.1445 231.361 25.2885C231.361 27.3849 231.743 29.3384 232.506 31.1013C233.269 32.9118 234.318 34.4364 235.654 35.7705C236.941 37.0569 238.467 38.1051 240.232 38.8675C241.949 39.6298 243.761 40.0109 245.716 40.0586C246.718 40.0586 247.767 40.0109 248.816 39.8204C249.865 39.5821 250.867 39.2963 251.868 38.9151C252.822 38.4863 253.681 38.0098 254.539 37.4381C255.35 36.8187 256.065 36.1517 256.637 35.437L257.544 39.8204H263.934V11.3284ZM250.438 33.6265C249.388 34.0076 248.339 34.2459 247.195 34.2459C246.05 34.2459 244.953 34.0076 243.952 33.6265C242.903 33.2453 242.044 32.6259 241.329 31.8159C240.566 31.0536 239.946 30.1483 239.564 29.0049C239.087 27.909 238.897 26.6702 238.897 25.2885C238.897 23.8592 239.087 22.6204 239.564 21.4769C239.946 20.381 240.566 19.4281 241.329 18.6182C242.044 17.8558 242.903 17.2841 243.952 16.8553C244.953 16.4741 246.05 16.2359 247.195 16.2359C248.339 16.2359 249.388 16.4741 250.438 16.8553C251.439 17.2841 252.345 17.8558 253.108 18.6182C253.824 19.4281 254.396 20.381 254.873 21.4769C255.254 22.6204 255.493 23.8592 255.493 25.2885C255.493 26.6702 255.254 27.909 254.873 29.0049C254.396 30.1483 253.824 31.0536 253.108 31.8159C252.345 32.6259 251.439 33.2453 250.438 33.6265Z" fill="#F4F4F8"/>
<path d="M13.8628 0.445889C13.8628 0.199631 13.6627 0 13.4159 0H0.946873C0.700072 0 0.5 0.19963 0.5 0.445888V11.4866C0.5 11.6413 0.580371 11.7849 0.712353 11.8661L13.1814 19.5367C13.4791 19.7198 13.8628 19.5061 13.8628 19.1571V0.445889Z" fill="#F4F4F8"/>
<path d="M13.8628 20.8431C13.8628 20.4941 13.4791 20.2804 13.1814 20.4635L0.712353 28.1341C0.580371 28.2153 0.5 28.3589 0.5 28.5136V39.5543C0.5 39.8006 0.700072 40.0002 0.946873 40.0002H13.4159C13.6627 40.0002 13.8628 39.8006 13.8628 39.5543V20.8431Z" fill="#F4F4F8"/>
<path d="M14.5568 18.9137C14.3245 19.263 14.6598 19.7101 15.0612 19.5863L40.1858 11.8326C40.373 11.7749 40.5006 11.6022 40.5006 11.4067V0.445888C40.5006 0.19963 40.3006 0 40.0538 0H27.3776C27.2279 0 27.0881 0.0748308 27.0053 0.199314L14.5568 18.9137Z" fill="#F4F4F8"/>
<path d="M14.5569 21.0863C14.3244 20.737 14.6597 20.2898 15.0612 20.4137L40.1853 28.1672C40.3725 28.2249 40.5002 28.3976 40.5002 28.5931V39.5539C40.5002 39.8002 40.3001 39.9998 40.0533 39.9998H29.3839L27.3757 39.9901C27.2267 39.9893 27.088 39.9146 27.0056 39.7908L14.5569 21.0863Z" fill="#F4F4F8"/>
</svg>
