<svg width="40" height="40" viewBox="0 0 40 40" fill="none" xmlns="http://www.w3.org/2000/svg">
<path d="M13.3628 0.445889C13.3628 0.199631 13.1627 0 12.9159 0H0.446873C0.200072 0 0 0.19963 0 0.445888V11.4866C0 11.6413 0.0803707 11.7849 0.212353 11.8661L12.6814 19.5367C12.9791 19.7198 13.3628 19.5061 13.3628 19.1571V0.445889Z" fill="#4A3BFF"/>
<path d="M13.3628 20.8431C13.3628 20.4941 12.9791 20.2804 12.6814 20.4635L0.212353 28.1341C0.0803707 28.2153 0 28.3589 0 28.5136V39.5543C0 39.8006 0.200072 40.0002 0.446873 40.0002H12.9159C13.1627 40.0002 13.3628 39.8006 13.3628 39.5543V20.8431Z" fill="#4A3BFF"/>
<path d="M14.0558 18.9137C13.8235 19.263 14.1588 19.7101 14.5602 19.5863L39.6848 11.8326C39.872 11.7749 39.9997 11.6022 39.9997 11.4067V0.445888C39.9997 0.19963 39.7996 0 39.5528 0H26.8766C26.7269 0 26.5871 0.0748308 26.5043 0.199314L14.0558 18.9137Z" fill="#4A3BFF"/>
<path d="M14.0569 21.0863C13.8244 20.737 14.1597 20.2898 14.5612 20.4137L39.6853 28.1672C39.8725 28.2249 40.0002 28.3976 40.0002 28.5931V39.5539C40.0002 39.8002 39.8001 39.9998 39.5533 39.9998H28.8839L26.8757 39.9901C26.7267 39.9893 26.588 39.9146 26.5056 39.7908L14.0569 21.0863Z" fill="#4A3BFF"/>
</svg>
