<svg width="124" height="29" viewBox="0 0 124 29" fill="none" xmlns="http://www.w3.org/2000/svg">
<g filter="url(#filter0_i_1150_5125)">
<path d="M8.52878 27.4861V28.4339L7.70798 28.9078L6.88717 28.4339V27.4861L7.70798 27.0122L8.52878 27.4861Z" fill="white"/>
<path d="M32.508 27.4861V28.4339L31.6872 28.9078L30.8664 28.4339V27.4861L31.6872 27.0122L32.508 27.4861Z" fill="white"/>
<path d="M10.8665 25.9933V27.1781L9.84052 27.7705L8.81451 27.1781V25.9933L9.84052 25.401L10.8665 25.9933Z" fill="white"/>
<path d="M30.5807 25.9933V27.1781L29.5547 27.7705L28.5287 27.1781V25.9933L29.5547 25.401L30.5807 25.9933Z" fill="white"/>
<path d="M13.173 25.2114V26.1592L12.3522 26.6331L11.5314 26.1592V25.2114L12.3522 24.7375L13.173 25.2114Z" fill="white"/>
<path d="M27.8638 25.2114V26.1592L27.043 26.6331L26.2222 26.1592V25.2114L27.043 24.7375L27.8638 25.2114Z" fill="white"/>
<path d="M17.7586 16.3062L14.6738 19.2852V21.8303L15.6051 22.368V24.2636L13.9634 25.2114L12.3218 24.2636V22.368L13.9634 21.4202L14.3896 21.6662V19.2247L14.3895 19.1645L17.5611 16.1016L17.7586 16.3062Z" fill="white"/>
<path d="M25.0057 19.1645L25.0056 19.2247V21.6662L25.4318 21.4202L27.0734 22.368V24.2636L25.4318 25.2114L23.7902 24.2636V22.368L24.7214 21.8303V19.2852L21.6366 16.3062L21.8341 16.1016L25.0057 19.1645Z" fill="white"/>
<path d="M11.4347 22.0837V23.9793L9.79313 24.9271L8.15152 23.9793V22.0837L9.79313 21.1359L11.4347 22.0837Z" fill="white"/>
<path d="M31.2437 22.0837V23.9793L29.6021 24.9271L27.9605 23.9793V22.0837L29.6021 21.1359L31.2437 22.0837Z" fill="white"/>
<path d="M19.1525 16.395L19.1526 16.3953C19.1526 16.3955 19.1527 16.3959 19.1527 16.3963L19.1541 16.4148C19.1551 16.4278 19.1564 16.447 19.1581 16.4717C19.1614 16.5211 19.1659 16.593 19.1705 16.6824C19.1797 16.8614 19.1897 17.1111 19.1923 17.3943C19.1977 17.9601 19.1739 18.6614 19.0573 19.1979C18.8082 20.3437 18.486 20.9592 17.8696 21.954C17.6121 22.3696 17.2201 22.8565 16.8931 23.2389C16.7295 23.4302 16.5819 23.5957 16.4753 23.7133C16.422 23.772 16.3789 23.8189 16.3491 23.8511C16.3343 23.8671 16.3226 23.8795 16.3148 23.8879C16.3109 23.8921 16.3079 23.8953 16.3059 23.8974C16.3049 23.8985 16.3041 23.8994 16.3036 23.8999L16.3028 23.9007L16.2518 23.9549L16.2621 23.8812C16.2621 23.881 16.2622 23.8806 16.2622 23.8803C16.2623 23.8798 16.2624 23.8789 16.2626 23.8779C16.2629 23.8758 16.2633 23.8726 16.2639 23.8686C16.2651 23.8603 16.2669 23.8479 16.2692 23.8321C16.2738 23.8004 16.2806 23.7544 16.2892 23.6971C16.3066 23.5823 16.3316 23.422 16.3621 23.2401C16.4231 22.8764 16.5061 22.4254 16.5943 22.0778C16.8916 20.9061 17.1993 20.2868 17.6856 19.1834C17.9329 18.6221 18.2887 17.9224 18.5824 17.3635C18.7293 17.0839 18.8608 16.8395 18.9555 16.6648C19.0028 16.5775 19.041 16.5077 19.0674 16.4596C19.0805 16.4357 19.0907 16.4171 19.0976 16.4046C19.1011 16.3983 19.1037 16.3934 19.1055 16.3902C19.1064 16.3886 19.1071 16.3874 19.1075 16.3866C19.1078 16.3862 19.1079 16.3859 19.108 16.3857L19.1463 16.3165L19.1525 16.395Z" fill="white"/>
<path d="M20.287 16.3854L20.2872 16.3857C20.2873 16.3859 20.2875 16.3862 20.2877 16.3866C20.2881 16.3874 20.2888 16.3886 20.2897 16.3902C20.2915 16.3934 20.2941 16.3983 20.2976 16.4046C20.3045 16.4171 20.3147 16.4357 20.3278 16.4596C20.3542 16.5077 20.3924 16.5775 20.4397 16.6648C20.5345 16.8395 20.666 17.0839 20.8128 17.3635C21.1066 17.9224 21.4623 18.6221 21.7096 19.1834C22.1959 20.2868 22.5036 20.9061 22.8009 22.0778C22.8891 22.4254 22.9722 22.8764 23.0331 23.2401C23.0636 23.422 23.0886 23.5823 23.106 23.6971C23.1147 23.7544 23.1215 23.8004 23.1261 23.8321C23.1284 23.8479 23.1301 23.8603 23.1313 23.8686C23.1319 23.8726 23.1323 23.8758 23.1326 23.8779C23.1328 23.8789 23.1329 23.8798 23.133 23.8803C23.133 23.8806 23.1331 23.8808 23.1331 23.881L23.1435 23.9549L23.0924 23.9008L23.0916 23.8999C23.0911 23.8994 23.0903 23.8985 23.0893 23.8974C23.0873 23.8953 23.0843 23.8921 23.0804 23.8879C23.0726 23.8795 23.061 23.8671 23.0461 23.8511C23.0163 23.8189 22.9732 23.772 22.9199 23.7133C22.8133 23.5957 22.6657 23.4302 22.5021 23.2389C22.1752 22.8565 21.7831 22.3696 21.5256 21.954C20.9093 20.9592 20.587 20.3437 20.3379 19.1979C20.2213 18.6614 20.1976 17.9601 20.2029 17.3943C20.2055 17.1111 20.2155 16.8614 20.2247 16.6824C20.2294 16.593 20.2338 16.5211 20.2371 16.4717C20.2388 16.447 20.2402 16.4278 20.2411 16.4148L20.2425 16.3963C20.2425 16.3959 20.2426 16.3955 20.2426 16.3953V16.395L20.2489 16.3165L20.287 16.3854Z" fill="white"/>
<path d="M17.0012 16.1191L13.3484 18.7729L13.9938 19.1455V21.0411L12.3522 21.9889L10.7106 21.0411V19.1455L12.3522 18.1977L13.079 18.6173L16.834 15.8891L17.0012 16.1191Z" fill="white"/>
<path d="M26.3162 18.6173L27.043 18.1977L28.6846 19.1455V21.0411L27.043 21.9889L25.4014 21.0411V19.1455L26.0467 18.7729L22.394 16.1191L22.5612 15.8891L26.3162 18.6173Z" fill="white"/>
<path d="M12.0982 9.38319V11.2788L12.0445 11.3097L16.1259 12.4033L16.0523 12.6779L12.5246 11.7326L10.5292 13.0309C10.5435 13.0762 10.5514 13.1244 10.5514 13.1744C10.5514 13.4361 10.3392 13.6483 10.0775 13.6483C9.81574 13.6483 9.60357 13.4361 9.60357 13.1744C9.60358 12.9127 9.81575 12.7005 10.0775 12.7005C10.1858 12.7005 10.2857 12.7369 10.3655 12.7981L12.1553 11.6337L11.6963 11.5107L10.4566 12.2266L8.81497 11.2788V10.4258H7.23121L6.82525 10.7076L8.30701 11.5631V13.4587L8.19419 13.5238L8.86079 14.306L15.8512 14.1133L15.859 14.3974L9.88291 14.5622L12.0962 15.7875L15.9361 14.83L16.0253 14.7921L16.0313 14.8063L16.0749 14.7954L16.1437 15.0714L16.0265 15.1005L12.2438 16.7103V17.7039L16.2799 15.4667L16.4178 15.7154L12.0777 18.1211L12.0705 18.1081L10.9305 18.7664L9.85079 18.143L9.0423 18.7091L9.22353 18.8138V20.2355L7.99232 20.9463L6.76111 20.2355V18.8138L7.99232 18.1029L8.77055 18.5522L9.61718 17.9595V16.4917L10.9305 15.7334L12.1537 16.4396L14.273 15.5377L12.0564 16.0904L12.0074 16.0632L9.32368 14.5776L8.7326 14.5939L7.94372 13.6684L6.6654 14.4065L5.02379 13.4587V11.5631L5.44539 11.3196L7.14217 10.1414H8.81497V9.38319L10.4566 8.43539L12.0982 9.38319Z" fill="white"/>
<path d="M30.5802 9.38319V10.1414H32.253L33.9497 11.3196L34.3714 11.5631V13.4587L32.7298 14.4065L31.4514 13.6684L30.6626 14.5939L30.0715 14.5776L27.3878 16.0632L27.3389 16.0904L25.122 15.5377L27.2414 16.4396L28.4647 15.7334L29.778 16.4917V17.9595L30.6246 18.5522L31.4029 18.1029L32.6341 18.8138V20.2355L31.4029 20.9463L30.1717 20.2355V18.8138L30.3528 18.7091L29.5443 18.143L28.4647 18.7664L27.3246 18.1081L27.3175 18.1211L22.9774 15.7154L23.1153 15.4667L27.1514 17.7039V16.7103L23.3687 15.1005L23.2515 15.0714L23.3203 14.7954L23.3638 14.8063L23.37 14.7921L23.459 14.83L27.2991 15.7875L29.5122 14.5622L23.5362 14.3974L23.5441 14.1133L30.5344 14.306L31.2009 13.5238L31.0882 13.4587V11.5631L32.5699 10.7076L32.164 10.4258H30.5802V11.2788L28.9386 12.2266L27.6988 11.5107L27.2397 11.6337L29.0296 12.7981C29.1095 12.7369 29.2094 12.7005 29.3177 12.7005C29.5795 12.7005 29.7916 12.9127 29.7916 13.1744C29.7916 13.4361 29.5795 13.6483 29.3177 13.6483C29.056 13.6483 28.8438 13.4361 28.8438 13.1744C28.8439 13.1244 28.8516 13.0762 28.866 13.0309L26.8705 11.7326L23.3429 12.6779L23.2693 12.4033L27.3506 11.3097L27.297 11.2788V9.38319L28.9386 8.43539L30.5802 9.38319Z" fill="white"/>
<path d="M18.412 16.3926L16.1495 19.6237L16.1435 19.6195C16.2029 19.6987 16.2381 19.7971 16.2381 19.9037C16.2381 20.1655 16.026 20.3776 15.7643 20.3776C15.5025 20.3776 15.2904 20.1655 15.2904 19.9037C15.2904 19.642 15.5025 19.4298 15.7643 19.4298C15.8187 19.4298 15.871 19.4391 15.9197 19.456L18.179 16.2295L18.412 16.3926Z" fill="white"/>
<path d="M23.4754 19.456C23.5241 19.4391 23.5765 19.4298 23.631 19.4298C23.8927 19.4298 24.1049 19.642 24.1049 19.9037C24.1049 20.1655 23.8927 20.3776 23.631 20.3776C23.3692 20.3776 23.1571 20.1655 23.1571 19.9037C23.1571 19.7971 23.1922 19.6987 23.2517 19.6195L23.2457 19.6237L20.9832 16.3926L21.2162 16.2295L23.4754 19.456Z" fill="white"/>
<path d="M12.9209 12.6057C13.1521 12.6057 13.3445 12.7713 13.3862 12.9904L15.9637 13.0804L15.9538 13.3646L13.3531 13.2737C13.2789 13.4386 13.1134 13.5535 12.9209 13.5535C12.6591 13.5535 12.447 13.3413 12.447 13.0796C12.447 12.8179 12.6591 12.6057 12.9209 12.6057Z" fill="white"/>
<path d="M26.4744 12.6057C26.7361 12.6057 26.9482 12.8179 26.9483 13.0796C26.9483 13.3413 26.7361 13.5535 26.4744 13.5535C26.2818 13.5535 26.1162 13.4386 26.042 13.2737L23.4414 13.3646L23.4315 13.0804L26.0089 12.9904C26.0506 12.7713 26.2431 12.6057 26.4744 12.6057Z" fill="white"/>
<path d="M2.05202 0.592373V1.04822H4.77305L6.5808 2.561L7.89754 1.80081L9.53915 2.74861V4.64421L9.26166 4.80433L9.50213 5.00565L10.4566 4.45465L12.0982 5.40244V7.17808L16.7702 11.0877L16.5877 11.3057L11.9208 7.40041L11.0969 7.87606L16.4038 11.68L16.2381 11.9111L10.8266 8.03212L10.4566 8.24583L8.81497 7.29804V5.40244L9.23991 5.15707L8.99935 4.95576L7.89754 5.592L6.25592 4.64421V2.74861L6.31858 2.71242L4.66975 1.33265L2.05202 1.33256V1.77712L1.02601 2.36949L0 1.77712V0.592373L1.02601 0L2.05202 0.592373Z" fill="white"/>
<path d="M39.3952 0.592373V1.77712L38.3692 2.36949L37.3432 1.77712V1.33256L34.7255 1.33265L33.0765 2.71242L33.1393 2.74861V4.64421L31.4977 5.592L30.3958 4.95576L30.1552 5.15707L30.5802 5.40244V7.29804L28.9386 8.24583L28.5685 8.03212L23.1571 11.9111L22.9914 11.68L28.2982 7.87606L27.4744 7.40041L22.8076 11.3057L22.625 11.0877L27.297 7.17808V5.40244L28.9386 4.45465L29.893 5.00565L30.1335 4.80433L29.8561 4.64421V2.74861L31.4977 1.80081L32.8143 2.561L34.6222 1.04822H37.3432V0.592373L38.3692 0L39.3952 0.592373Z" fill="white"/>
<path d="M12.5559 5.14652C12.556 5.14656 12.5562 5.14671 12.5563 5.1468C12.5565 5.14698 12.5569 5.1472 12.5574 5.14754C12.5583 5.14825 12.5598 5.14937 12.5616 5.15078C12.5654 5.15361 12.5711 5.15782 12.5785 5.16336C12.5933 5.17447 12.6151 5.19098 12.6431 5.21233C12.6992 5.25503 12.7803 5.31741 12.8807 5.39606C13.0815 5.55339 13.3592 5.77597 13.6669 6.03702C14.2819 6.55883 15.018 7.23547 15.4986 7.85218C15.8823 8.34448 16.2859 9.03307 16.5932 9.59774C16.7469 9.88022 16.8768 10.132 16.9682 10.3132C17.0138 10.4038 17.0499 10.4767 17.0746 10.527C17.0869 10.5522 17.0964 10.5717 17.1028 10.5849C17.106 10.5915 17.1084 10.5966 17.11 10.6C17.1108 10.6016 17.1115 10.6029 17.1119 10.6038C17.1121 10.6042 17.1123 10.6046 17.1124 10.6048L17.1125 10.6051L17.1484 10.6798L17.0784 10.6353C17.0783 10.6353 17.0782 10.6352 17.0781 10.6351C17.0779 10.635 17.0776 10.6347 17.0772 10.6345C17.0764 10.634 17.0751 10.6332 17.0735 10.6322C17.0702 10.6301 17.0654 10.6269 17.059 10.6228C17.0463 10.6146 17.0275 10.6025 17.0033 10.5868C16.955 10.5554 16.8849 10.5094 16.798 10.4515C16.6242 10.3356 16.383 10.1715 16.1136 9.97917C15.5749 9.59471 14.922 9.0962 14.468 8.64171C13.7606 7.93356 13.2336 7.31243 12.8529 6.64633C12.7047 6.38698 12.6213 6.01601 12.5748 5.71214C12.5515 5.5598 12.5373 5.42347 12.529 5.32525C12.5248 5.27614 12.522 5.23645 12.5204 5.20909C12.5195 5.19545 12.519 5.18483 12.5186 5.17762C12.5184 5.17404 12.5183 5.17124 12.5182 5.16938C12.5182 5.16847 12.5182 5.16773 12.5181 5.16725C12.5181 5.16703 12.5181 5.16682 12.518 5.1667L12.516 5.11681L12.5559 5.14652Z" fill="white"/>
<path d="M26.8772 5.16651C26.8772 5.16663 26.8771 5.16703 26.8771 5.16725C26.8771 5.16773 26.877 5.16847 26.877 5.16938C26.8769 5.17124 26.8768 5.17404 26.8766 5.17762C26.8762 5.18483 26.8757 5.19545 26.8749 5.20909C26.8732 5.23645 26.8704 5.27614 26.8662 5.32525C26.8579 5.42347 26.8438 5.5598 26.8204 5.71214C26.7739 6.01601 26.6905 6.38698 26.5423 6.64633C26.1617 7.31243 25.6346 7.93356 24.9272 8.64171C24.4732 9.0962 23.8203 9.59471 23.2817 9.97917C23.0122 10.1715 22.771 10.3356 22.5972 10.4515C22.5103 10.5094 22.4402 10.5554 22.3919 10.5868C22.3677 10.6025 22.3489 10.6146 22.3362 10.6228C22.3298 10.6269 22.325 10.6301 22.3217 10.6322C22.3201 10.6332 22.3189 10.634 22.318 10.6345C22.3176 10.6347 22.3173 10.635 22.3171 10.6351C22.317 10.6352 22.3169 10.6352 22.3168 10.6352L22.2468 10.6798L22.2827 10.6051L22.2829 10.6048C22.283 10.6046 22.2831 10.6042 22.2833 10.6038C22.2837 10.6029 22.2844 10.6016 22.2852 10.6C22.2868 10.5966 22.2892 10.5915 22.2924 10.5849C22.2988 10.5717 22.3083 10.5522 22.3206 10.527C22.3453 10.4767 22.3814 10.4038 22.4271 10.3132C22.5184 10.132 22.6483 9.88022 22.802 9.59774C23.1093 9.03307 23.5129 8.34448 23.8966 7.85218C24.3772 7.23547 25.1133 6.55883 25.7283 6.03702C26.036 5.77597 26.3137 5.55339 26.5145 5.39606C26.6149 5.31741 26.696 5.25503 26.7521 5.21233C26.7802 5.19098 26.802 5.17447 26.8167 5.16336C26.8241 5.15782 26.8298 5.15361 26.8336 5.15078C26.8355 5.14937 26.8369 5.14825 26.8378 5.14754C26.8383 5.1472 26.8387 5.14698 26.8389 5.1468C26.8391 5.14671 26.8392 5.14656 26.8392 5.14652L26.8792 5.11681L26.8772 5.16651Z" fill="white"/>
<path d="M16.7594 5.592C17.152 5.592 17.4703 5.91027 17.4703 6.30285C17.4703 6.37137 17.4603 6.43758 17.4422 6.50028C17.4497 6.50143 17.4578 6.50248 17.4666 6.50398C17.5135 6.51197 17.5794 6.52532 17.6579 6.54711C17.8145 6.59056 18.0243 6.6682 18.235 6.80544C18.6632 7.08431 19.0815 7.60151 19.0815 8.53017V9.95187H18.7972V8.53017C18.7972 7.7048 18.4336 7.2741 18.0799 7.04369C17.8997 6.92631 17.7184 6.85898 17.5818 6.82108C17.5138 6.80221 17.4575 6.79084 17.4188 6.78425C17.3995 6.78095 17.3847 6.77881 17.375 6.77758C17.3703 6.77697 17.3668 6.77661 17.3647 6.77638C17.3637 6.77627 17.363 6.77613 17.3626 6.7761L17.2949 6.76999C17.1646 6.91924 16.9731 7.0137 16.7594 7.0137C16.3668 7.0137 16.0486 6.69544 16.0486 6.30285C16.0486 5.91027 16.3669 5.592 16.7594 5.592Z" fill="white"/>
<path d="M22.6358 5.592C23.0284 5.592 23.3466 5.91027 23.3466 6.30285C23.3466 6.69544 23.0284 7.0137 22.6358 7.0137C22.4221 7.0137 22.2305 6.91926 22.1002 6.76999L22.0328 6.7761C22.0324 6.77613 22.0315 6.77627 22.0305 6.77638C22.0284 6.77661 22.025 6.77697 22.0202 6.77758C22.0106 6.77881 21.9957 6.78095 21.9764 6.78425C21.9377 6.79084 21.8814 6.80221 21.8134 6.82108C21.6768 6.85898 21.4956 6.92631 21.3153 7.04369C20.9616 7.2741 20.598 7.7048 20.598 8.53017V9.95187H20.3137V8.53017C20.3137 7.60151 20.7321 7.08431 21.1602 6.80544C21.3709 6.6682 21.5807 6.59056 21.7373 6.54711C21.8159 6.52532 21.8818 6.51197 21.9286 6.50398C21.9374 6.50249 21.9455 6.50143 21.9529 6.50028C21.9348 6.43759 21.9249 6.37136 21.9249 6.30285C21.9249 5.91027 22.2432 5.592 22.6358 5.592Z" fill="white"/>
<path d="M5.08451 2.93817V4.83376L4.29489 5.28961L4.89559 6.43104L5.52804 6.0659L7.16966 7.0137V8.90929L5.52804 9.85709L3.88643 8.90929V7.0137L4.64911 6.57331L4.04841 5.43188L3.44289 5.78156L1.80128 4.83376V2.93817L3.44289 1.99037L5.08451 2.93817Z" fill="white"/>
<path d="M37.5939 2.93817V4.83376L35.9523 5.78156L35.3467 5.43188L34.746 6.57331L35.5088 7.0137V8.90929L33.8672 9.85709L32.2256 8.90929V7.0137L33.8672 6.0659L34.4995 6.43104L35.1002 5.28961L34.3107 4.83376V2.93817L35.9523 1.99037L37.5939 2.93817Z" fill="white"/>
</g>
<path d="M16.9352 14.1865V13.0309L16.9125 12.8467H17.9656C18.0672 12.8467 18.1484 12.8581 18.209 12.8808C18.2712 12.902 18.3175 12.9316 18.3478 12.9695C18.3796 13.0059 18.4001 13.0491 18.4092 13.0992C18.4198 13.1477 18.4251 13.1993 18.4251 13.2539V13.4336C18.4251 13.5063 18.413 13.5738 18.3887 13.636C18.366 13.6967 18.3228 13.7459 18.2591 13.7839C18.1969 13.8203 18.1067 13.8385 17.9884 13.8385H17.8314C17.7359 13.8385 17.6464 13.8362 17.563 13.8316C17.4811 13.8271 17.4197 13.8233 17.3788 13.8203V14.1865H16.9352ZM17.3788 13.5291H17.8496C17.8997 13.5291 17.9346 13.5192 17.9543 13.4995C17.974 13.4798 17.9838 13.448 17.9838 13.404V13.288C17.9838 13.244 17.9747 13.2122 17.9565 13.1924C17.9383 13.1712 17.9035 13.1606 17.8519 13.1606H17.3788V13.5291Z" fill="white"/>
<path d="M18.7656 14.1865V13.0309L18.7429 12.849H19.2934L19.6937 13.6451L20.1032 12.849H20.6241V14.1865H20.1896V13.4199H20.1646L20.069 13.6656L19.903 14.05H19.489L19.3161 13.6656L19.2228 13.4199H19.2001V14.1865H18.7656Z" fill="white"/>
<path d="M22.465 14.2092C22.4043 14.2092 22.3369 14.2001 22.2626 14.1819C22.1883 14.1622 22.1147 14.1152 22.0419 14.0409L21.9464 13.9454C21.9009 13.8999 21.8569 13.8627 21.8144 13.8339C21.7735 13.8051 21.7265 13.7839 21.6734 13.7702C21.6203 13.755 21.5536 13.7475 21.4732 13.7475H21.455V14.1865H21.0115V13.0309L20.9887 12.8467H22.0419C22.139 12.8467 22.2171 12.8588 22.2762 12.8831C22.3369 12.9058 22.3831 12.9369 22.415 12.9763C22.4483 13.0143 22.4711 13.0575 22.4832 13.106C22.4953 13.1545 22.5014 13.2038 22.5014 13.2539V13.2971C22.5014 13.3881 22.4779 13.47 22.4309 13.5427C22.3854 13.614 22.3126 13.6648 22.2125 13.6951C22.2504 13.7179 22.2861 13.7414 22.3194 13.7657C22.3543 13.7884 22.3937 13.8127 22.4377 13.8385C22.4878 13.8673 22.534 13.8885 22.5765 13.9021C22.6204 13.9143 22.6568 13.9219 22.6857 13.9249C22.7145 13.9279 22.7311 13.9294 22.7357 13.9294L22.6675 14.1865C22.6493 14.191 22.6212 14.1956 22.5833 14.2001C22.5469 14.2062 22.5075 14.2092 22.465 14.2092ZM21.7189 13.4449C21.7568 13.4449 21.7932 13.4442 21.8281 13.4427C21.8645 13.4411 21.8971 13.4389 21.9259 13.4358C21.9775 13.4298 22.0123 13.4138 22.0305 13.3881C22.0503 13.3608 22.0601 13.3282 22.0601 13.2902V13.2652C22.0601 13.2319 22.0503 13.2061 22.0305 13.1879C22.0123 13.1697 21.9782 13.1606 21.9282 13.1606H21.455V13.4358C21.4929 13.4373 21.5347 13.4396 21.5801 13.4427C21.6256 13.4442 21.6719 13.4449 21.7189 13.4449Z" fill="white"/>
<path d="M44.797 23.2737V7.59136L44.4871 5.09082H58.8341C60.2182 5.09082 61.3234 5.24517 62.1497 5.55388C62.9967 5.84201 63.6267 6.24333 64.0399 6.75785C64.4737 7.25178 64.7526 7.83832 64.8765 8.51748C65.0211 9.17606 65.0934 9.8758 65.0934 10.6167V13.0555C65.0934 14.0434 64.9282 14.9592 64.5977 15.803C64.2878 16.6262 63.699 17.2951 62.8314 17.8096C61.9844 18.3035 60.7553 18.5505 59.1439 18.5505H57.0058C55.7044 18.5505 54.4856 18.5196 53.3494 18.4579C52.2339 18.3961 51.3972 18.3447 50.8394 18.3035V23.2737H44.797ZM50.8394 14.3521H57.2537C57.9355 14.3521 58.4106 14.2183 58.6791 13.9507C58.9477 13.6832 59.082 13.251 59.082 12.6542V11.0798C59.082 10.4829 58.958 10.0507 58.7101 9.78319C58.4622 9.49506 57.9871 9.351 57.2847 9.351H50.8394V14.3521Z" fill="white"/>
<path d="M69.7318 23.2737V7.59136L69.4219 5.12169H76.9208L82.3745 15.9265L87.9521 5.12169H95.0482V23.2737H89.1297V12.8703H88.7888L87.4873 16.2043L85.2253 21.4215H79.5857L77.2307 16.2043L75.9602 12.8703H75.6503V23.2737H69.7318Z" fill="white"/>
<path d="M120.126 23.5825C119.3 23.5825 118.38 23.459 117.368 23.212C116.356 22.9445 115.354 22.3065 114.362 21.298L113.061 20.0014C112.441 19.384 111.842 18.8798 111.264 18.4888C110.706 18.0977 110.066 17.8096 109.343 17.6244C108.62 17.4186 107.711 17.3157 106.616 17.3157H106.368V23.2737H100.325V7.59136L100.016 5.09082H114.362C115.685 5.09082 116.748 5.25547 117.554 5.58475C118.38 5.89346 119.011 6.31536 119.444 6.85046C119.899 7.36497 120.209 7.95152 120.374 8.6101C120.539 9.26867 120.622 9.93754 120.622 10.6167V11.2032C120.622 12.4381 120.302 13.5494 119.661 14.5373C119.042 15.5046 118.05 16.194 116.687 16.6056C117.203 16.9143 117.688 17.2333 118.143 17.5626C118.618 17.8713 119.155 18.2006 119.754 18.5505C120.436 18.9415 121.066 19.2297 121.644 19.4149C122.244 19.5795 122.739 19.6824 123.132 19.7236C123.524 19.7648 123.752 19.7853 123.814 19.7853L122.884 23.2737C122.636 23.3355 122.254 23.3972 121.737 23.459C121.242 23.5413 120.704 23.5825 120.126 23.5825ZM109.962 13.2099C110.479 13.2099 110.975 13.1996 111.45 13.179C111.946 13.1584 112.39 13.1275 112.782 13.0864C113.485 13.004 113.96 12.7879 114.208 12.4381C114.476 12.0676 114.61 11.6251 114.61 11.1106V10.7711C114.61 10.3183 114.476 9.96841 114.208 9.72145C113.96 9.47448 113.495 9.351 112.813 9.351H106.368V13.0864C106.884 13.1069 107.452 13.1378 108.072 13.179C108.692 13.1996 109.322 13.2099 109.962 13.2099Z" fill="white"/>
<defs>
<filter id="filter0_i_1150_5125" x="0" y="0" width="39.3952" height="32.9082" filterUnits="userSpaceOnUse" color-interpolation-filters="sRGB">
<feFlood flood-opacity="0" result="BackgroundImageFix"/>
<feBlend mode="normal" in="SourceGraphic" in2="BackgroundImageFix" result="shape"/>
<feColorMatrix in="SourceAlpha" type="matrix" values="0 0 0 0 0 0 0 0 0 0 0 0 0 0 0 0 0 0 127 0" result="hardAlpha"/>
<feOffset dy="4"/>
<feGaussianBlur stdDeviation="2"/>
<feComposite in2="hardAlpha" operator="arithmetic" k2="-1" k3="1"/>
<feColorMatrix type="matrix" values="0 0 0 0 0.0117647 0 0 0 0 0.286275 0 0 0 0 0.772549 0 0 0 0.43 0"/>
<feBlend mode="normal" in2="shape" result="effect1_innerShadow_1150_5125"/>
</filter>
</defs>
</svg>
