<svg width="12" height="14" viewBox="0 0 12 14" fill="white" xmlns="http://www.w3.org/2000/svg">
  <path fill-rule="evenodd" clip-rule="evenodd" d="M11 1.2C11 0.537258 10.4627 0 9.8 0H1.8C1.13726 0 0.599999 0.537259 0.599999 1.2V11.8667C0.599999 12.5294 1.13726 13.0667 1.8 13.0667H9.8C10.4627 13.0667 11 12.5294 11 11.8667V1.2ZM9.8 1.06667C9.87364 1.06667 9.93333 1.12636 9.93333 1.2V6.1332H1.66667V1.2C1.66667 1.12636 1.72636 1.06667 1.8 1.06667H9.8ZM1.66667 7.19987V11.8667C1.66667 11.9403 1.72636 12 1.8 12H9.8C9.87364 12 9.93333 11.9403 9.93333 11.8667V7.19987L1.66667 7.19987Z" fill="currentColor"/>
</svg>