<svg width="16" height="16" viewBox="0 0 16 16" fill="none" xmlns="http://www.w3.org/2000/svg">
<path d="M6.58312 8.33329C6.45788 8.33329 6.33776 8.38304 6.24921 8.4716C6.16065 8.56016 6.11089 8.68027 6.11089 8.80552C6.11089 8.93076 6.16065 9.05087 6.24921 9.13943C6.33776 9.22799 6.45788 9.27774 6.58312 9.27774H9.41645C9.54169 9.27774 9.6618 9.22799 9.75036 9.13943C9.83892 9.05087 9.88867 8.93076 9.88867 8.80552C9.88867 8.68027 9.83892 8.56016 9.75036 8.4716C9.6618 8.38304 9.54169 8.33329 9.41645 8.33329H6.58312ZM1.38867 4.08329C1.38867 3.70757 1.53793 3.34723 1.8036 3.08156C2.06928 2.81588 2.42962 2.66663 2.80534 2.66663L13.1942 2.66663C13.57 2.66663 13.9303 2.81588 14.196 3.08156C14.4616 3.34723 14.6109 3.70757 14.6109 4.08329V5.02774C14.611 5.32082 14.5203 5.60674 14.3511 5.84609C14.182 6.08544 13.9428 6.26643 13.6665 6.36413L13.6665 11.6388C13.6665 12.2651 13.4177 12.8656 12.9749 13.3084C12.5321 13.7512 11.9315 14 11.3053 14L4.69423 14C4.06802 14 3.46746 13.7512 3.02467 13.3084C2.58188 12.8656 2.33312 12.2651 2.33312 11.6388L2.33312 6.36413C2.05679 6.26643 1.81757 6.08544 1.64842 5.84609C1.47927 5.60674 1.38852 5.32082 1.38867 5.02774L1.38867 4.08329ZM2.80534 3.61107C2.6801 3.61107 2.55999 3.66082 2.47143 3.74938C2.38287 3.83794 2.33312 3.95805 2.33312 4.08329L2.33312 5.02774C2.33312 5.15298 2.38287 5.27309 2.47143 5.36165C2.55999 5.45021 2.6801 5.49996 2.80534 5.49996L13.1942 5.49996C13.3195 5.49996 13.4396 5.45021 13.5281 5.36165C13.6167 5.27309 13.6665 5.15298 13.6665 5.02774V4.08329C13.6665 3.95805 13.6167 3.83794 13.5281 3.74938C13.4396 3.66082 13.3195 3.61107 13.1942 3.61107L2.80534 3.61107ZM3.27756 6.4444L3.27756 11.6388C3.27756 12.0146 3.42682 12.3749 3.69249 12.6406C3.95817 12.9063 4.3185 13.0555 4.69423 13.0555L11.3053 13.0555C11.6811 13.0555 12.0414 12.9063 12.3071 12.6406C12.5728 12.3749 12.722 12.0146 12.722 11.6388L12.722 6.4444L3.27756 6.4444Z" fill="#F4F4F8"/>
</svg>
