<svg width="20" height="20" viewBox="0 0 20 20" fill="none" xmlns="http://www.w3.org/2000/svg">
<path d="M9.08301 2C12.995 2 16.166 5.17197 16.166 9.08398C16.1659 10.7992 15.5555 12.3711 14.541 13.5967L17.3057 16.3623C17.566 16.6227 17.566 17.0443 17.3057 17.3047C17.0453 17.5648 16.6236 17.565 16.3633 17.3047L13.5986 14.54C12.3727 15.5558 10.7994 16.167 9.08301 16.167C5.1711 16.167 2.00018 12.9959 2 9.08398C2 5.17197 5.17099 2 9.08301 2ZM9.08301 3.33398C5.90737 3.33398 3.33301 5.90835 3.33301 9.08398C3.33318 12.2595 5.90748 14.834 9.08301 14.834C10.5997 14.834 11.9775 14.2446 13.0049 13.2852C13.0355 13.2266 13.0738 13.1703 13.123 13.1211C13.1723 13.0719 13.2285 13.0345 13.2871 13.0039C14.2453 11.9768 14.8329 10.5995 14.833 9.08398C14.833 5.90835 12.2586 3.33398 9.08301 3.33398ZM9.08691 5.91699C9.45497 5.91699 9.75369 6.215 9.75391 6.58301V8.41699H11.5859C11.9538 8.41717 12.2517 8.71511 12.252 9.08301C12.252 9.45109 11.954 9.74982 11.5859 9.75H9.75391V11.583C9.75391 11.9512 9.4551 12.25 9.08691 12.25C8.71872 12.25 8.41992 11.9512 8.41992 11.583V9.75H6.58594C6.21775 9.75 5.91895 9.4512 5.91895 9.08301C5.91917 8.715 6.21788 8.41699 6.58594 8.41699H8.41992V6.58301C8.42014 6.215 8.71886 5.91699 9.08691 5.91699Z" fill="#E0E4EB"/>
</svg>
