<svg width="16" height="16" viewBox="0 0 16 16" fill="none" xmlns="http://www.w3.org/2000/svg">
<path d="M10.7988 1.33337C11.0933 1.33337 11.332 1.57209 11.332 1.86658V3.33337H12.7998C13.4624 3.33355 13.999 3.87094 13.999 4.53357L13.999 12.8002C13.999 13.4628 13.4624 14.0002 12.7998 14.0004L3.2002 14.0004C2.53746 14.0004 2 13.4629 2 12.8002L2 4.53357C2 3.87082 2.53745 3.33337 3.2002 3.33337L4.66699 3.33337V1.86658C4.66706 1.57209 4.90569 1.33337 5.2002 1.33337C5.49461 1.33348 5.73333 1.57215 5.7334 1.86658V3.33337L10.2656 3.33337V1.86658C10.2657 1.57213 10.5044 1.33344 10.7988 1.33337ZM3.06641 12.8002C3.06641 12.8738 3.12656 12.934 3.2002 12.934L12.7998 12.934C12.8733 12.9338 12.9326 12.8737 12.9326 12.8002V7.20056L3.06641 7.20056L3.06641 12.8002ZM5.06738 9.33337C5.43557 9.33337 5.73438 9.63218 5.73438 10.0004C5.7342 10.3684 5.43546 10.6664 5.06738 10.6664C4.69945 10.6662 4.40154 10.3683 4.40137 10.0004C4.40137 9.63229 4.69934 9.33355 5.06738 9.33337ZM8 9.33337C8.36819 9.33337 8.66699 9.63218 8.66699 10.0004C8.66682 10.3684 8.36808 10.6664 8 10.6664C7.63192 10.6664 7.33318 10.3684 7.33301 10.0004C7.33301 9.63218 7.63181 9.33337 8 9.33337ZM10.9346 9.33337C11.3028 9.33337 11.6016 9.63218 11.6016 10.0004C11.6014 10.3684 11.3027 10.6664 10.9346 10.6664C10.5666 10.6662 10.2687 10.3683 10.2686 10.0004C10.2686 9.63229 10.5665 9.33355 10.9346 9.33337ZM3.2002 4.39978C3.12656 4.39978 3.06641 4.45993 3.06641 4.53357L3.06641 6.13318L12.9326 6.13318V4.53357C12.9326 4.46004 12.8733 4.39996 12.7998 4.39978L3.2002 4.39978Z" fill="#F4F4F8"/>
</svg>
