<svg width="16" height="16" viewBox="0 0 16 16" fill="none" xmlns="http://www.w3.org/2000/svg">
<path d="M8.00098 1.33301C11.6827 1.33318 14.667 4.31821 14.667 8C14.6668 11.6816 11.6826 14.6658 8.00098 14.666C4.31918 14.666 1.33416 11.6817 1.33398 8C1.33398 4.3181 4.31908 1.33301 8.00098 1.33301ZM8.00098 2.39941C4.90818 2.39941 2.40039 4.9072 2.40039 8C2.40057 11.0926 4.90829 13.5996 8.00098 13.5996C11.0935 13.5994 13.6004 11.0925 13.6006 8C13.6006 4.90732 11.0936 2.39959 8.00098 2.39941ZM8 4.4668C8.29455 4.4668 8.5332 4.70545 8.5332 5V7.4668L11 7.4668C11.2946 7.4668 11.5332 7.70545 11.5332 8C11.5332 8.29455 11.2946 8.5332 11 8.5332L8 8.5332C7.70551 8.53313 7.4668 8.29451 7.4668 8V5C7.4668 4.70549 7.70551 4.46687 8 4.4668Z" fill="#F4F4F8"/>
</svg>
